<?xml version="1.0" encoding="utf-8"?>
<!-- Generator: Adobe Illustrator 23.0.2, SVG Export Plug-In . SVG Version: 6.00 Build 0)  -->
<svg version="1.1" id="Logga_ny_färg" xmlns="http://www.w3.org/2000/svg" xmlns:xlink="http://www.w3.org/1999/xlink" x="0px"
	 y="0px" viewBox="0 0 3551 1765.48" style="enable-background:new 0 0 3551 1765.48;" xml:space="preserve">
<style type="text/css">
	.st0{fill:#F5C137;}
	.st1{fill:#EFE7CE;}
	.st2{fill:#F5F6F7;}
	.st3{fill:#145B8F;}
	.st4{fill:#CA6664;}
	.st5{fill:#5B6B44;}
	.st6{fill:#889B67;}
	.st7{fill:#728255;}
	.st8{stroke:#000000;stroke-miterlimit:10;}
	.st9{fill:#1C5C8D;}
	.st10{fill:#ECBC41;}
	.st11{fill:#EFF1F4;}
</style>
<g id="TEXT_2_">
	<path class="st0" d="M268.32,1203.92l-58.54,57.78L54.04,1133.71l4.04-4.91l5.82,4.78c5.09,4.18,9.95,6.62,14.58,7.31
		c3.26,0.6,6.73-0.1,10.41-2.12c2.69-1.34,7.75-6.53,15.17-15.56l97.34-118.45c7.57-9.21,11.82-15.35,12.76-18.43
		c0.94-3.08,0.68-6.67-0.79-10.77c-1.47-4.1-4.66-8.17-9.58-12.21l-5.82-4.78l4.04-4.91l93.52,76.86l-4.04,4.91l-7.63-6.27
		c-5.09-4.18-9.95-6.62-14.58-7.31c-3.26-0.6-6.78,0.07-10.54,2.02c-2.7,1.34-7.75,6.53-15.17,15.56l-94.29,114.73
		c-7.57,9.21-11.87,15.5-12.91,18.87c-1.04,3.37-0.56,6.92,1.44,10.64c1.5,2.57,6.39,7.25,14.67,14.06l14.62,12.01
		c9.31,7.65,18.46,12.35,27.43,14.09c8.97,1.74,18.71,0.84,29.2-2.7c10.49-3.54,23.58-10.72,39.28-21.56L268.32,1203.92z"/>
	<path class="st0" d="M396.62,1118.42l102.52,56.79l-3.08,5.56l-5.13-2.84c-7.71-4.27-13.47-6.38-17.27-6.32
		c-3.8,0.06-7.11,1.2-9.94,3.43c-2.83,2.23-7.47,9.16-13.91,20.79l-55.3,99.83c-10.11,18.24-15.46,31.06-16.04,38.46
		c-0.59,7.4,1.11,14.76,5.09,22.08s10.67,13.57,20.04,18.76c10.74,5.95,21.27,8.54,31.58,7.77c10.31-0.77,19.77-4.47,28.36-11.11
		c8.59-6.64,18.88-20.78,30.87-42.43l46.06-83.14c5.05-9.12,7.73-16.15,8.04-21.09c0.31-4.94-0.53-8.94-2.53-12.01
		c-3.12-4.74-8.68-9.33-16.68-13.76l3.08-5.56l68.69,38.05l-3.08,5.56l-4.1-2.27c-5.57-3.08-10.84-4.5-15.83-4.25
		c-4.99,0.25-9.59,2.22-13.8,5.91c-3.05,2.5-6.87,7.92-11.48,16.24l-42.89,77.43c-13.27,23.96-24.39,40.39-33.35,49.31
		c-8.96,8.92-21.87,14.54-38.72,16.86c-16.85,2.32-35.58-2.22-56.18-13.64c-17.19-9.52-29.16-19.23-35.92-29.13
		c-9.24-13.5-13.72-26.72-13.44-39.67c0.28-12.94,5.11-27.88,14.5-44.82l55.3-99.83c6.5-11.73,9.9-19.37,10.21-22.93
		c0.31-3.56-0.62-7.06-2.8-10.49c-2.18-3.44-7.5-7.43-15.95-11.98L396.62,1118.42z"/>
	<path class="st0" d="M717.85,1277.84l53.5,174.87l35.52-93.7c4.96-13.07,6.48-22.6,4.57-28.6c-2.65-8.11-9.92-14.3-21.79-18.55
		l2.25-5.95l70.14,26.59l-2.25,5.95c-9.43-2.22-16.03-2.98-19.82-2.27c-3.79,0.71-7.35,2.85-10.67,6.43
		c-3.33,3.58-6.94,10.51-10.84,20.8l-68.78,181.45l-5.32-2.02l-74.78-235.87l-52.52,138.54c-4.75,12.54-5.17,22.06-1.25,28.57
		c3.92,6.51,9.48,11.13,16.68,13.86l5.01,1.9l-2.25,5.95l-75.3-28.55l2.25-5.95c11.73,4.33,20.8,4.95,27.23,1.87
		c6.42-3.08,11.82-10.41,16.21-21.98l58.3-153.8l-2.35-7.51c-2.3-7.49-4.82-12.79-7.57-15.92c-2.75-3.13-7.33-6.02-13.72-8.69
		l2.25-5.95L717.85,1277.84z"/>
	<path class="st0" d="M845.59,1573.27l1.56-6.17l7.3,1.85c6.38,1.62,11.54,1.83,15.47,0.64c3.93-1.19,7.15-3.36,9.68-6.5
		c1.56-2.09,3.82-8.96,6.77-20.63l37.62-148.63c2.92-11.55,4.15-18.92,3.7-22.11c-0.46-3.19-2.23-6.33-5.3-9.41
		c-3.08-3.08-7.7-5.41-13.87-6.97l-7.3-1.85l1.56-6.17l98.52,24.94c26.29,6.66,46.52,15.68,60.68,27.06
		c17.31,13.95,28.71,31.32,34.22,52.1c5.51,20.78,5.35,42.66-0.47,65.66c-4.02,15.89-10.22,29.89-18.58,42.01
		c-8.37,12.13-17.6,21.55-27.71,28.27c-10.11,6.72-21,11.41-32.66,14.07c-11.67,2.66-25.34,3.55-41,2.65
		c-6.94-0.34-17.5-2.3-31.67-5.89L845.59,1573.27z M983.44,1381.4l-44.62,176.28c-2.36,9.33-3.38,15.16-3.05,17.49
		c0.33,2.33,1.38,4.31,3.16,5.94c2.5,2.41,6.51,4.31,12.03,5.7c18.07,4.57,33.47,1.73,46.2-8.52
		c17.31-13.82,30.53-38.72,39.64-74.71c7.34-28.99,8.76-53.28,4.28-72.85c-3.6-15.33-10.31-26.84-20.1-34.52
		C1014.05,1390.8,1001.54,1385.86,983.44,1381.4z"/>
	<path class="st0" d="M1268.51,1597.43l-79.29-12.07l-12.85,20.99c-4.23,7.01-6.71,12.95-7.45,17.82
		c-0.98,6.46,0.83,11.6,5.44,15.43c2.7,2.27,9.83,4.74,21.39,7.43l-0.96,6.29l-74.65-11.36l0.96-6.29
		c8.24-0.02,15.39-2.44,21.43-7.26c6.04-4.82,14.2-15.42,24.49-31.83l108.26-171.63l3.15,0.48l52.18,201.27
		c5,19.08,9.63,31.31,13.89,36.71c3.22,4.08,8.2,6.93,14.96,8.54l-0.96,6.29l-108.58-16.53l0.96-6.29l4.47,0.68
		c8.72,1.33,15.03,1.01,18.94-0.94c2.7-1.44,4.31-3.86,4.83-7.26c0.31-2.04,0.3-4.18-0.04-6.44c-0.07-1.05-1.08-5.55-3.03-13.5
		L1268.51,1597.43z M1264.8,1584l-21.36-84.44l-46.51,74.11L1264.8,1584z"/>
	<path class="st0" d="M1595.8,1461.31l-3.78,77.62l-6.85-0.5c-1.82-19.66-8.62-35.87-20.4-48.61
		c-11.78-12.74-25.01-19.65-39.71-20.71c-11.36-0.82-20.57,1.64-27.65,7.39c-7.08,5.75-10.91,12.68-11.5,20.79
		c-0.37,5.14,0.46,9.8,2.51,13.97c2.84,5.61,7.63,11.3,14.38,17.07c4.96,4.15,16.55,11.71,34.78,22.68
		c25.52,15.29,42.48,29.22,50.86,41.77c8.27,12.55,11.85,26.48,10.74,41.79c-1.41,19.43-10,35.61-25.76,48.54
		c-15.77,12.93-35,18.57-57.71,16.93c-7.13-0.52-13.81-1.75-20.04-3.69c-6.24-1.95-14-5.32-23.27-10.13
		c-5.18-2.67-9.49-4.13-12.94-4.38c-2.9-0.21-6.04,0.71-9.43,2.76c-3.4,2.05-6.26,5.35-8.61,9.89l-6.18-0.45l6.36-87.77l6.18,0.45
		c3.11,25.04,11.18,44.55,24.21,58.54c13.03,13.98,27.62,21.56,43.76,22.73c12.47,0.9,22.66-1.86,30.57-8.3
		c7.91-6.43,12.2-14.28,12.87-23.54c0.4-5.49-0.64-10.9-3.1-16.25s-6.43-10.55-11.88-15.59c-5.45-5.05-15.26-11.82-29.42-20.31
		c-19.84-11.89-34.01-21.82-42.49-29.79c-8.49-7.97-14.83-16.64-19.01-26.02c-4.19-9.38-5.89-19.5-5.1-30.35
		c1.34-18.51,9.11-33.8,23.3-45.87c14.19-12.07,31.36-17.37,51.51-15.91c7.35,0.53,14.4,1.96,21.18,4.29
		c5.13,1.75,11.32,4.76,18.57,9.01c7.25,4.26,12.37,6.5,15.38,6.72c2.89,0.21,5.24-0.54,7.05-2.25c1.8-1.71,3.68-5.99,5.63-12.86
		L1595.8,1461.31z"/>
	<path class="st0" d="M1752.39,1597.05l-0.18,64.63c-0.03,12.61,0.7,20.54,2.2,23.81c1.5,3.27,4.17,5.88,8.02,7.84
		c3.85,1.96,10.9,2.95,21.17,2.98l-0.02,6.36l-115.36-0.31l0.02-6.36c10.49,0.03,17.61-0.95,21.36-2.95
		c3.74-1.99,6.37-4.59,7.89-7.8c1.52-3.2,2.29-11.11,2.32-23.71l0.41-151.25c0.03-12.6-0.7-20.54-2.2-23.81
		c-1.5-3.27-4.14-5.88-7.93-7.84c-3.79-1.96-10.88-2.95-21.26-2.98l0.02-6.36l98.95,0.27c32.59,0.09,55.96,6.11,70.1,18.07
		c14.14,11.96,21.19,26.87,21.14,44.75c-0.04,15.13-4.65,28.06-13.83,38.81c-9.18,10.75-21.81,18.05-37.9,21.9
		C1796.49,1595.8,1778.18,1597.13,1752.39,1597.05z M1752.7,1482.93l-0.27,100.72c3.68,0.24,6.47,0.36,8.37,0.37
		c13.62,0.04,24.12-4.09,31.51-12.38c7.39-8.29,11.11-21.14,11.16-38.56c0.05-17.3-3.6-29.97-10.95-38.01
		c-7.35-8.04-18.33-12.08-32.95-12.12L1752.7,1482.93z"/>
	<path class="st0" d="M2001.48,1476.73l6.89,94.62l4.51-0.33c14.36-1.05,24.43-6.43,30.22-16.16c5.78-9.73,8.91-23.68,9.37-41.87
		l6.35-0.46l8.86,121.71l-6.35,0.46c-2.3-13.16-5.9-23.81-10.8-31.96c-4.9-8.14-10.3-13.47-16.19-15.97
		c-5.89-2.5-14.24-3.36-25.03-2.57l4.77,65.48c0.93,12.8,2.03,20.59,3.3,23.37c1.26,2.78,3.41,4.98,6.44,6.6
		c3.03,1.62,7.77,2.19,14.23,1.72l13.53-0.99c21.15-1.54,37.73-7.8,49.75-18.79c12.01-10.98,20.05-26.97,24.12-47.94l6.18-0.45
		l-4.81,74.62l-195.71,14.25l-0.46-6.34l7.51-0.55c6.57-0.48,11.77-2.06,15.6-4.75c2.78-1.81,4.8-4.71,6.08-8.71
		c1.02-2.83,1.11-10.08,0.26-21.73l-11.13-152.91c-0.77-10.51-1.52-16.95-2.25-19.31c-1.41-3.92-3.69-6.85-6.85-8.81
		c-4.46-2.89-10.37-4.07-17.72-3.54l-7.51,0.55l-0.46-6.34l189.53-13.8l5.01,68.74l-6.35,0.46c-4.45-16.56-9.87-28.29-16.24-35.18
		c-6.38-6.89-15.03-11.66-25.97-14.31c-6.39-1.6-18.15-1.78-35.29-0.53L2001.48,1476.73z"/>
	<path class="st0" d="M2327.39,1522.87l76.91,84.29c12.75,13.97,21.57,22.28,26.46,24.92c4.89,2.64,10.36,3.82,16.42,3.55l1.01,6.28
		l-109.28,17.5l-1-6.28c8.6-2.07,14-4.33,16.21-6.77c2.21-2.44,3.08-5.13,2.61-8.08c-0.33-2.04-1-3.78-2.03-5.25
		c-2.09-3.15-6.96-8.87-14.62-17.16l-40.7-44.48l-27.35,48.42c-8.17,14.65-11.88,24.3-11.14,28.94c0.53,3.28,2.34,6.13,5.44,8.53
		c3.1,2.41,7.33,3.82,12.72,4.23c2.42,0.31,7.22-0.11,14.38-1.26l1.01,6.28l-86.13,13.79l-1-6.28c9.57-3.04,16.85-6.99,21.84-11.85
		c6.55-6.38,15.12-18.9,25.7-37.54l35.56-62.79l-70.81-76.91c-11.63-12.64-18.24-19.65-19.81-21.02c-3.57-3.26-6.92-5.45-10.04-6.57
		c-3.12-1.12-7.28-1.68-12.47-1.66l-1.01-6.28l111.26-17.81l1.01,6.28l-5.62,0.9c-6.39,1.02-10.69,2.79-12.89,5.28
		c-2.2,2.5-3.05,5.33-2.54,8.5c0.4,2.49,1.13,4.58,2.19,6.26l14.23,15.82l34.73,39l18.89-33.49c9.68-17.21,14.03-28.88,13.05-34.99
		c-0.49-3.05-1.8-5.75-3.92-8.08c-2.13-2.33-4.9-3.97-8.34-4.93c-3.43-0.96-8.51-0.9-15.23,0.18l-1-6.28l82.5-13.21l1.01,6.28
		c-6.49,1.16-11.59,2.81-15.31,4.98c-3.72,2.16-7.51,5.7-11.36,10.61c-2.43,3.17-8.25,12.75-17.44,28.73L2327.39,1522.87z"/>
	<path class="st0" d="M2620.49,1526.98l-77.49,20.68l-3.37,24.38c-1.07,8.11-0.97,14.55,0.3,19.31c1.68,6.31,5.4,10.3,11.16,11.96
		c3.38,1,10.91,0.41,22.58-1.75l1.64,6.14l-72.96,19.47l-1.64-6.14c7.55-3.32,13.12-8.39,16.73-15.23
		c3.61-6.83,6.84-19.82,9.7-38.97l30.51-200.62l3.07-0.82l128.38,163.56c12.22,15.48,21.36,24.84,27.42,28.08
		c4.58,2.46,10.29,3.07,17.13,1.83l1.64,6.14l-106.12,28.32l-1.64-6.14l4.37-1.17c8.52-2.27,14.18-5.09,16.98-8.44
		c1.9-2.4,2.41-5.27,1.52-8.59c-0.53-1.99-1.4-3.95-2.61-5.89c-0.48-0.94-3.21-4.66-8.18-11.16L2620.49,1526.98z M2611.71,1516.16
		l-53.37-68.83l-12.96,86.53L2611.71,1516.16z"/>
	<path class="st0" d="M2850.64,1404.7l24.76,60.44c4.78,11.67,8.48,18.72,11.12,21.17c2.63,2.45,6.07,3.86,10.32,4.22
		c4.25,0.37,11.18-1.42,20.78-5.36l2.41,5.88l-107.52,44.06l-2.41-5.88c9.71-3.98,15.91-7.6,18.61-10.88
		c2.7-3.27,4.14-6.68,4.32-10.22c0.18-3.54-2.12-11.14-6.9-22.8l-57.35-139.96c-4.78-11.66-8.48-18.72-11.12-21.17
		c-2.63-2.45-6.07-3.85-10.32-4.22c-4.25-0.36-11.18,1.42-20.78,5.36l-2.41-5.88l97.6-39.99c25.41-10.41,44.74-16.22,57.99-17.45
		c13.25-1.22,25.58,1.5,37,8.15c11.41,6.65,19.79,16.5,25.13,29.54c6.52,15.9,6.33,31.34-0.57,46.3
		c-4.43,9.5-12.38,18.51-23.84,27.04l80.42,52.31c10.48,6.73,17.59,10.69,21.33,11.88c5.58,1.55,11.23,1.34,16.93-0.62l2.41,5.88
		l-66.15,27.11l-107.98-70.55L2850.64,1404.7z M2807.31,1298.94l38.71,94.47l8.83-3.62c14.36-5.88,24.54-11.64,30.56-17.26
		c6.02-5.62,9.62-12.79,10.81-21.52c1.19-8.72-0.54-18.75-5.19-30.1c-6.73-16.43-15.45-27.04-26.16-31.82
		c-10.7-4.78-24.37-3.76-41,3.05L2807.31,1298.94z"/>
	<path class="st0" d="M3038.66,1165.44l172.27,61.36l-54.02-84.39c-7.54-11.77-14.28-18.68-20.22-20.73
		c-8.09-2.71-17.39-0.57-27.89,6.43l-3.43-5.36l63.17-40.44l3.43,5.36c-7.41,6.24-11.95,11.09-13.65,14.55
		c-1.69,3.46-2.09,7.6-1.21,12.4c0.89,4.81,4.3,11.84,10.23,21.1l104.61,163.43l-4.79,3.07l-233.92-80.66l79.87,124.78
		c7.23,11.29,14.62,17.31,22.18,18.04c7.56,0.74,14.59-0.97,21.07-5.12l4.51-2.89l3.43,5.36l-67.83,43.42l-3.43-5.36
		c10.47-6.83,16.38-13.75,17.74-20.74c1.36-6.99-1.3-15.7-7.97-26.12l-88.68-138.53l-7.42-2.59c-7.38-2.62-13.14-3.76-17.3-3.42
		c-4.15,0.35-9.2,2.29-15.16,5.82l-3.43-5.36L3038.66,1165.44z"/>
	<path class="st0" d="M3398.16,1076.4l-52.3,60.8l10.98,22.03c3.69,7.3,7.41,12.56,11.14,15.77c4.95,4.26,10.27,5.45,15.97,3.58
		c3.36-1.09,9.24-5.82,17.65-14.19l4.82,4.15l-49.25,57.24l-4.82-4.15c4.36-7,6.1-14.34,5.22-22.01
		c-0.88-7.68-5.54-20.22-13.98-37.65l-88.02-182.84l2.07-2.41l198.28,62.58c18.82,5.89,31.65,8.45,38.49,7.71
		c5.17-0.56,10.22-3.28,15.17-8.15l4.82,4.15l-71.63,83.26l-4.82-4.15l2.95-3.43c5.75-6.68,8.83-12.2,9.25-16.55
		c0.21-3.05-0.99-5.71-3.59-7.95c-1.56-1.35-3.39-2.47-5.48-3.39c-0.93-0.5-5.28-2.04-13.05-4.6L3398.16,1076.4z M3384.8,1072.42
		l-82.9-26.71l38.14,78.75L3384.8,1072.42z"/>
</g>
<g id="Uarda_1_">
	<path d="M2044.62,595.76l-2.16,2.48c0,0-0.48,6.86-8.3,8.22c-7.82,1.35-272.37,0.56-272.37,0.56s-16.03,2.53-22.13-0.72
		c-6.11-3.24-6.12-4.41-8.64-16.55c-2.52-12.13-1.93-11.36-4.86-17.83c-2.93-6.46-4.02-13.46,2.02-14.87
		c6.05-1.42,27.56-3.58,32.72-12.53c5.16-8.96,6.94-15.81,3.81-38c-3.13-22.19-21.83-57.59-25.23-67.18
		c-3.41-9.58-29.91-48.94-27.94-72.32c1.97-23.38,2.44-26.04,0.42-35.78c0,0-1.63-5.2-3.26-7.91c-1.63-2.72-4.94-9.98,0.39-11.98
		c5.33-1.99,27.04,2.81,44.15-7.34c17.12-10.14,24.57-24.17,26.7-32.31s6.64-26.32,10.81-33.56c0,0,9.62-21.06,14.74-27.08
		c5.13-6.02,16.12-28.33,14.28-53.52c0,0-2.29-13.99-3.63-17.79c-1.35-3.8-1.23-9.56,5.32-10.16c6.54-0.6,25.2,0.56,27.45-9.41
		c2.24-9.97-9.11-22.35-9.11-22.35s-12.01-12.62-36.37-14.33c-12.66-0.89-45.22,1.78-64.7,10.48c-9.52,4.25-17.93,10.73-24.92,18.4
		c-0.83,0.91-1.65,1.84-2.44,2.78c-18.61,22.03-17.84,54.65-14.16,71.68c3.67,17.04,16.18,55.83,17.38,63.23
		c1.19,7.39,0.3,12.81-4.45,15.28c-4.75,2.48-11.12,7.35-16.67-1.7c-10.77-17.56-14.99-33.16-23.97-51.53
		c-15.28-31.23-34.89-55.25-61.07-77.16c-21.29-17.82-48.05-38.9-73.04-51.37c-36.8-18.35-67.33-34.74-113.64-41.94
		c-46.32-7.2-98.06-5.56-98.06-5.56s-55-2.78-107.94,6.44c-52.93,9.22-99.58,26.84-99.58,26.84s-63.96,23.9-105.42,50.88
		c-41.46,26.99-85.4,67.43-94.1,62.05c-0.33-0.21-1.11-0.46-2.24-0.73c-14.98-10.25-57.52-36.49-83.86-69.49
		c0,0-20.58-17.21-32.31-15.26c-11.73,1.96-25.33,10.11-19.52,25.36c0,0,1.08,2.12-2.72,1.31c-3.81-0.81-15.28-0.63-19.08-0.34
		c-3.81,0.29-15.15,1.68-15.83,10.44c-0.67,8.76,5.63,21.03,5.63,21.03s1.93,2.35-1.45,3.27c-3.39,0.92-45.91,3.79-27.02,34.99
		c0,0,1.96,9.24-3.91,12.24c-5.86,3-31.63,14.3-16.51,34.84c0,0,2.78,6.36-3.05,11.56c-12.94,11.56-35.8,22.96-9.73,46.02
		c0,0,3.98,6.88,1.31,11.48c-9.44,16.25-23.81,24.92-3.8,44.52c0,0,11.18,10.99,4.27,25.48c-6.9,14.48-14.01,34.24,16.91,40.35
		c-0.03,0.04-0.04,0.55,0.84,5.82c2.39,14.19-7.78,42.41,27.62,46.69c0,0,8.73,2.92,7.88,10.51c-0.86,7.6-1.23,33.95,32.54,31.15
		c0,0,5.05-0.81,6.33,4.04c1.27,4.86,9.42,21.44,22.07,15.79c12.65-5.66,19.4-6.52,54.08-38.6c34.68-32.07,51.92-39.7,68.31-45.28
		c16.4-5.59,24.94-6.58,24.94-6.58l-1.12,2.7c0,0-34.16,62.88-39.5,71.98c-5.34,9.11-25.98,42.68-19.02,49.24
		c6.97,6.56,10.88,4.7,19.2,3.7c8.31-1,14.99,0.08,14.99,0.08s-1.81,10.06-9.26,21.39c-7.45,11.32-12.05,27.94-35.31,31.16
		c-23.27,3.23-44.61,9.14-58.53,33.2c-13.93,24.05-10.51,51.77-10.51,51.77s1.42,5.53-1.08,6.87c0,0-11.04-5.44-20.46-2.1
		c-9.42,3.34-11.59,15.86-9.69,21.73c1.89,5.88,7.69,12.33,18.59,18.45c10.91,6.13,64.37,38.72,71.68,43.62
		c7.32,4.89,22.43,15.29,35.11,16.66c12.68,1.38,16.45-10.32,17.35-14.41c0.9-4.1,2.52-9.03-2.27-14.57
		c-4.8-5.54-7.17-8.91-7.17-8.91s17.95-8.72,23.22-12.76c15.42-11.82,24.62-29.97,27.38-49c2.47-17.03,1.06-41.07-10.2-55.07
		c-3.53-4.39-8.68-8.58-9.71-14.41c-0.82-4.62,1.78-9.07,4.23-13.07c8.74-14.24,16.93-28.83,24-43.97
		c3.85-8.24,7.41-16.72,12.77-24.06c5.36-7.35,12.86-13.6,21.78-15.38c0.69-0.14,1.43-0.24,2.08,0.03c0.59,0.25,1.02,0.78,1.36,1.33
		c2,3.32,1.19,7.56,0.29,11.33C996.11,612.72,980.43,664,971.13,717c-2.22,12.63-4.21,25.31-5.64,38.05
		c-2.36,20.95-6.67,72.56-4.78,98.78c1.89,26.22,3.99,60.53,18.71,107.76c14.71,47.22,33.5,78.4,47.45,101.93
		c13.95,23.52,37.45,49.45,62.59,70.32c25.14,20.88,42.05,26.57,70.23,34.66c28.18,8.1,47.84,4.99,51.67-11.39
		c3.83-16.39,30.01-145.74,30.01-145.74l6.34-31.92c0,0,0.5-14,14.93-9.01c16.44,5.68,56.35,8.64,79.83-0.85
		c23.49-9.5,48.73-28.13,63.39-50.4c14.66-22.27,28.28-45.28,42.34-84.36c14.06-39.09,27.37-50.81,38.14-61.11
		c10.77-10.29,21.79-17.85,42.36-10.95c20.57,6.89,94.6,12,133.97,1.88c39.38-10.13,50.08-40.34,48.98-48.04
		c-1.1-7.69,0.44-7.59-13.36-30.83c0,0-20.43-26.33-4.03-32.73c0,0,5.37-2.85,16.73-2.46c11.37,0.38,12.49-1.44,19.96-7.9
		c0,0,2.83-3.25,23.63-3.22c20.8,0.02,64.5,0.04,64.5,0.04l91.84-0.01l110.04-0.04c0,0,17.19-1.28,19.93,6.2
		c0,0,2.73,3.47,2.88,8.21s6.06,2.45,6.06,2.45l4.71-30.79v-27.86L2044.62,595.76z M882.91,733.66c-15.25,0-27.61-12.36-27.61-27.61
		s12.36-27.61,27.61-27.61s27.61,12.36,27.61,27.61S898.16,733.66,882.91,733.66z"/>
	<g>
		<path class="st1" d="M1753.06,538.01c-1.76,2.64-6.65,5.5-6.65,5.5c-1.79,1.18-5.31,2.66-8.15,2.54
			c-4.14-0.16-7.53-3.83-7.53-3.83l-2.92,0.29c-15.89,6.34-13.66,20.05-13.97,22.41c-0.32,2.35,1.62,11.83,2.28,15.36
			c0.65,3.53-0.75,5.58-0.75,5.58c-0.52,2.14-8.87,7.62-8.87,7.62s-6.2,5.05-15.9,10.43c-9.7,5.37-17.86,7.14-23.84,7.49
			c-5.97,0.36-5.61,0.07-10.87-0.39c-5.26-0.45-11,1.21-11,1.21s-1.63,0.33-2.68,2.19c-1.05,1.86-0.75,3.7-0.33,4.85
			c0.43,1.14,1.99,1.8,3.58,1.86c1.59,0.06,3.11,0.26,3.11,0.26c6.64,1.16,10.33,4.46,12,5.74c1.66,1.28,5.59,5.02,11.06,9.99
			c5.48,4.97,12.15,6.19,12.15,6.19c0.51,0.08,1.13,0.32,1.13,0.32c1.69,1.32-0.68,4.41-0.68,4.41s-3.73,3.61-4.94,7.58
			c-1.21,3.96-3.81,12.89,9.72,33.24c13.53,20.35,11.27,32.35,11.27,32.35s0.45,11.79-17.84,23.17c-18.29,11.39-35.54,12-35.54,12
			c-77.37,4.16-96.97-1.34-113.58-3.88c-16.6-2.55-38.73-8.57-45.85-11.45c0,0-59.26-25.75-80.82-46.58l-3.35-2.54
			c7.89-0.64,15.44-2.39,22.54-5.09c30.91-11.76,52.86-41.68,52.86-76.72c0-31.98-18.3-59.69-45-73.24
			c-11.14-5.64-23.74-8.83-37.08-8.83c-18.79,0-36.08,6.31-49.91,16.92c-0.09,0.09-0.17,0.18-0.25,0.27
			c-4.89,2.9-8.09,5.27-8.97,6.08c-3.25,2.97-4.24,9.02-0.13,11.51c4.12,2.49,8.03,1.09,13,1.33c4.96,0.25,4.96,2.81,5.73,3.95
			c0.78,1.14-0.01,4.98-0.41,6.27c-0.39,1.29-1.69,2.67-1.69,2.67s-2.62,4.89-15.26,3.51c-12.64-1.39-26.9-6.78-32.14-19.98
			c-5.23-13.2-18.35-35.12-26.56-42.34c-8.2-7.23-18.45-24.03-21.89-29.66c-3.45-5.64-10.82-16.46-13.43-32.74
			c-2.6-16.28,6.36-31.48,6.36-31.48c13.97-23.21,26.84-25.33,33.07-27.34c6.23-2.02,19.15-2.71,28.04-1.34
			c8.9,1.37,12.2,8.71,13.73,11.66c1.53,2.94,4.24,13.96,7.32,24.36c3.07,10.4,3.94,23.52,3.94,23.52
			c1.31,16.77-4.33,34.31-4.33,34.31s8.48-6.98,26.42-10.34c17.93-3.36,26.25-4.68,31.18-5.3c4.94-0.63,3.69-0.22,5.32-0.28
			c1.64-0.06,2.09-0.3,2.09-0.3c2.54-0.28,7.45-7.8,7.45-7.8l4.97-9.81c3.06-28.84,11.19-39.33,11.19-39.33
			c16.61-30.06,50.68-60.92,79.36-74.03c28.69-13.11,22.67-11.17,74.23-23.41c51.57-12.24,100.27-9.23,103.55-9.09
			c3.28,0.14,6.74,0.45,10.29,1.99c3.55,1.53,5.41,3.72,5.41,3.72c7.95,5.78,7.93,34.3,6.41,42.22
			c-1.52,7.93-3.88,28.52,15.46,57.83c19.33,29.31,34.16,81.73,34.16,81.73s6.09,23.46,6.48,29.01
			C1757.2,531.89,1754.83,535.36,1753.06,538.01z"/>
		<path class="st2" d="M1732.06,613.01c0,0,0.78-0.08,1.11-0.09c0.33,0,1.57,0.01,2.89,0.12c1.32,0.11,8.77,0.03,8.77,0.03
			l35.44-0.02l74.21-0.06c0,0,5.69,0.36,7.33,3.61s0.07,7.12,0.07,7.12s-2.45,6.94-11.72,6.84c-9.27-0.1-105.67-0.23-105.67-0.23
			s-5.84,0.2-7.2-0.24c0,0-3.44-0.28-5.35-4.16c0,0-0.74-1.42-1.87-2.73c-1.13-1.31-2.8-3.6-2.27-5.95
			c0.53-2.35,2.12-4.15,4.21-4.23"/>
		<path class="st0" d="M1347.39,454.37c0,0-4.81,10.85,3.46,13.12c0,0,2.5,0.99,7.54,0.19s11.73-2.5,14.39-2.78
			c2.67-0.28,5.14-0.92,12.03-1.51c6.89-0.59,11.48-4.15,13.3-9.61c1.81-5.46,3.4-16.34,6.89-24.33
			c3.49-7.98,8.87-19.54,16.47-29.63c7.6-10.09,21.87-28.77,36.36-39.74c14.49-10.96,29.76-22.34,47.97-29.56
			c18.21-7.23,42.96-16.66,87.02-23.57s87.91-7.16,120.31-6.61s50.43-12.53,55.28-28.87c4.85-16.34,13.15-43.74,23.42-58.64
			c0,0,13.15-15.97,15.48-34.18s0.52-22.89-0.61-30.59s-5.88-16.78-8.75-20.35c-2.87-3.56-6.07-7.96-12.12-11.59
			c0,0,2.66,1.38,15.54,1.61c12.88,0.23,23.98-2.37,34.71-2.17c0,0-3.65-15.69-19.01-20.55c0,0-7.37-2.94-19.58-2.7
			s-27.81,1.69-43.43,6.69s-23.04,9.59-29.96,17.25s-12.42,16.07-15.26,27.8c-2.84,11.73-5.06,26.36,2.33,54.28
			c0,0,13.1,34.29,14.41,42.78c1.31,8.49,3.91,20.61-6.58,30.57s-32.86,14.41-55.14,16.17c-22.28,1.76-37.33,3.25-38.08,3.32
			c-0.75,0.07-88.71,7.95-123.99,17.53l-50.3,10.84c0,0-52.78,11.63-57.7,12.48c-4.92,0.85-11.86,3.06-13.86,15.04
			c-2,11.98-18.06,68.81-25.3,88.06L1347.39,454.37z"/>
		<path class="st0" d="M1024.58,469.92c0,0-35.06-11.78-50.9-23.41c0,0-10.57-9.47-17,0.86c-6.43,10.33-46.63,83.65-46.63,83.65
			s-8.02,14.15-8.69,15.56c-0.67,1.41-6.44,11.84,2.25,12.07c8.69,0.22,7.63-0.93,16.53-1.29c8.89-0.36,43.03-5.45,54.12-9.79
			c11.09-4.34,15.49-5.73,24.31-12.66c8.82-6.94,21.72-23.42,26.01-33.27c4.29-9.86,5.5-13.69,5.5-13.69s3.27-11.87-0.05-15.34
			C1030.03,472.6,1029.08,471.03,1024.58,469.92z"/>
		<path id="Blått_1_" class="st3" d="M946.14,435.99c0,0-71.89-56.3-59.58-138.94c12.31-82.64,32.79-99.42,32.79-99.42
			s0.94-1.19-1.83-5.29s-55.57-33.87-85.61-71.5c0,0-17.59-16.39-28.76-14.53c-11.17,1.86-20.81,10.95-15.28,25.47
			c0,0,1.04,2.02-2.59,1.25s-17.87-1.92-21.5-1.64c-3.62,0.28-14.43,1.6-15.07,9.94c-0.64,8.35,12,18.63,12,18.63
			s1.84,2.25-1.39,3.12c-3.22,0.87-50.37,5.01-32.38,34.72c0,0,1.87,8.81-3.72,11.66s-30.13,13.62-15.73,33.19
			c0,0,2.65,6.06-2.91,11.01c-12.33,11.01-34.11,21.87-9.27,43.83c0,0,3.78,6.56,1.24,10.94c-8.99,15.48-22.68,23.74-3.62,42.41
			c0,0,10.65,10.47,4.07,24.27c-6.58,13.8-13.35,32.62,16.11,38.45c0,0-0.2-0.41,0.8,5.54c2.27,13.52-7.41,40.41,26.31,44.49
			c0,0,8.32,2.78,7.5,10.01c-0.82,7.23-1.17,32.34,31,29.68c0,0,4.82-0.78,6.03,3.84c1.21,4.63,8.98,20.43,21.03,15.04
			s16.76-8.18,49.8-38.73c33.04-30.56,49.72-37.8,65.33-43.12S946.14,435.99,946.14,435.99z"/>
		<g id="Vitt_1_">
			<path class="st2" d="M1344.24,440.55c0,0,4.24-7.79,10.75-33.23c6.52-25.44,63.42-216.11,63.42-216.11l36-121.24
				c0,0,1.29-4.25,1.21-5.77c-0.07-1.53,0.28-3.19-2.58-5.06c-2.87-1.88-10.57-2.76-12.3-2.46c-1.73,0.3-4.48,1.46-5.4,5.59
				c-0.93,4.14-1.01,5.83-1.31,7.43c-0.3,1.6-6.32,23.98-10.84,38.21s-22,70.35-22.54,72.14s-24.85,79.57-43.05,149.68
				s-17.27,66.29-19.14,74.1c-1.86,7.8-0.4,17.57,2.13,25.48C1343.13,437.23,1344.24,440.55,1344.24,440.55z"/>
			<path class="st2" d="M1388.21,56.16c0,0,0.21-7.57,6.71-8.3c6.51-0.73,10.85,1.93,11.33,2.83c0.48,0.91,1.26,1.62-0.58,6.72
				s-1.84,5.09-2.6,7.74s-59.05,200.11-59.05,200.11l-16.14,52.02c0,0-10.87,39-14.02,52.43c0,0-2.43,10.86-4.8,12.35
				c-2.37,1.48-10.14,2.93-13.14-0.36s1.99-14.99,2.93-18.21c0.94-3.22,18.49-63.68,18.49-63.68l68.04-234.65
				C1385.38,65.17,1388.11,58.03,1388.21,56.16z"/>
			<path class="st2" d="M1375.56,58.75l-2.24,7.5l-7.08,23.7l-0.43,1.42l-0.02,0.07l-6.44,21.54l-6.4,21.41
				c0,0-6.89,23.07-6.89,23.08c0,0-0.04,0.15-0.12,0.42c-0.09,0.27-0.2,0.66-0.35,1.16l-0.19,0.64c-0.07,0.23-0.15,0.47-0.22,0.73
				c-0.08,0.25-0.16,0.52-0.24,0.81l-0.13,0.43c-0.09,0.29-0.18,0.59-0.27,0.91c-0.1,0.31-0.2,0.64-0.29,0.97l-0.15,0.5
				c-0.11,0.34-0.21,0.68-0.31,1.04l-0.32,1.07c-0.11,0.36-0.22,0.73-0.33,1.1c-0.11,0.37-0.22,0.74-0.33,1.11l-1.01,3.37
				c-0.11,0.37-0.22,0.74-0.33,1.1l-1.72,5.75c-0.07,0.25-0.14,0.48-0.21,0.71l-0.28,0.92c-0.05,0.18-0.1,0.35-0.15,0.5
				c-0.04,0.14-0.08,0.27-0.11,0.38c-0.03,0.11-0.06,0.2-0.08,0.26c-0.02,0.07-0.04,0.12-0.04,0.14v0.01h-0.01v0.01l-7.32,24.5
				c0,0-0.16,0.58-0.44,1.65c-0.07,0.28-0.16,0.59-0.25,0.94c-0.06,0.23-0.13,0.48-0.2,0.74c-0.23,0.87-0.51,1.9-0.82,3.07
				c-0.05,0.19-0.1,0.37-0.15,0.56c-1.02,3.8-2.39,8.92-3.97,14.84c-0.15,0.56-0.3,1.13-0.46,1.7c-1.8,6.73-3.83,14.36-5.91,22.14
				c-0.55,2.06-1.1,4.12-1.65,6.19c-0.19,0.7-0.38,1.4-0.56,2.1c-1.8,6.74-3.57,13.4-5.18,19.48c-2.36,8.91-4.39,16.58-5.66,21.46
				c-0.25,0.97-0.47,1.82-0.66,2.56c-0.14,0.53-0.28,1.09-0.44,1.68c-0.43,1.61-0.94,3.42-1.51,5.41c-0.37,1.3-0.77,2.66-1.2,4.1
				c-0.03,0.07-0.05,0.15-0.07,0.22c-0.21,0.74-0.44,1.49-0.67,2.25c-0.72,2.38-1.5,4.91-2.32,7.53
				c-1.82,5.88-3.87,12.23-5.98,18.56c-2.69,8.07-5.46,16.09-8,23.01c-2.61,7.11-4.97,13.05-6.73,16.69
				c-0.2,0.41-0.39,0.8-0.59,1.18c-2.49,4.91-4.85,7.92-7.42,10.21c-0.23,0.21-0.47,0.41-0.71,0.6c-0.3,0.25-0.61,0.49-0.92,0.73
				c-0.31,0.23-0.62,0.46-0.94,0.68c-0.32,0.23-0.64,0.45-0.97,0.66c-0.24,0.16-0.48,0.32-0.72,0.47s-0.49,0.3-0.74,0.46
				c-0.25,0.15-0.51,0.3-0.77,0.46c-0.08,0.06-0.16,0.1-0.24,0.15c-0.31,0.18-0.64,0.37-0.97,0.57c-1.76,1.04-3.68,2.14-5.81,3.51
				c-0.62,0.39-1.25,0.81-1.91,1.26c-0.34,0.22-0.67,0.46-1.02,0.7c-0.74,0.52-1.44,1.03-2.09,1.54c-0.32,0.24-0.62,0.48-0.92,0.72
				c-0.57,0.46-1.1,0.91-1.61,1.37c-0.24,0.21-0.47,0.42-0.7,0.64c-0.08,0.07-0.15,0.14-0.22,0.21c-0.08,0.07-0.15,0.15-0.22,0.22
				c-0.45,0.43-0.88,0.87-1.29,1.32c-3.11,3.43-4.96,7.11-6.88,12.21c-0.47,1.23-0.94,2.53-1.43,3.94
				c-0.18,0.53-0.37,1.08-0.57,1.64c-0.18,0.51-0.35,1.04-0.54,1.58c-0.52,1.53-1.09,3.17-1.71,4.93c-0.04,0.13-0.07,0.22-0.09,0.27
				c-0.34,0.96-0.6,2-0.81,3.12c-0.06,0.37-0.12,0.75-0.18,1.14c-0.03,0.19-0.06,0.39-0.07,0.59c-0.03,0.19-0.05,0.39-0.07,0.6
				c-0.03,0.2-0.04,0.4-0.05,0.61c-0.02,0.21-0.04,0.42-0.05,0.63c-0.11,1.64-0.1,3.38,0,5.22c0.15,3.06,0.57,6.36,1.24,9.8
				c0.01,0.03,0.01,0.05,0.02,0.08c0.11,0.61,0.23,1.22,0.37,1.84c0.13,0.61,0.27,1.23,0.42,1.85c0.12,0.55,0.25,1.1,0.39,1.65
				c0.52,2.05,1.1,4.12,1.76,6.21c0.17,0.56,0.35,1.12,0.54,1.68c0.13,0.41,0.27,0.82,0.42,1.23c0.07,0.23,0.15,0.47,0.23,0.7
				c0.48,1.37,0.98,2.74,1.51,4.1c1.46,3.77,3.12,7.5,4.94,11.08c0.29,0.58,0.59,1.16,0.9,1.74c0.65,1.24,1.33,2.46,2.02,3.65
				c1.89,3.27,3.92,6.35,6.06,9.15c0.49,0.64,0.98,1.27,1.48,1.87c1.24,1.53,2.52,2.95,3.82,4.25c0.26,0.27,0.52,0.53,0.79,0.77
				c0.9,0.88,1.82,1.69,2.75,2.44c1.21,0.97,2.42,2.04,3.62,3.19c0.01,0.01,0.02,0.02,0.03,0.02c0.31,0.3,0.61,0.59,0.91,0.89
				c0.39,0.38,0.78,0.77,1.17,1.17c1.17,1.2,2.34,2.46,3.49,3.77c3.22,3.67,6.36,7.73,9.32,11.87c1.28,1.8,2.53,3.62,3.73,5.43
				c0.56,0.83,1.1,1.66,1.64,2.49c0.21,0.32,0.42,0.65,0.63,0.97c1.43,2.21,2.78,4.39,4.04,6.48c0,0,0,0,0,0.01
				c0.11,0.18,0.22,0.36,0.33,0.54c0.22,0.35,0.43,0.71,0.64,1.06c0.28,0.47,0.55,0.92,0.82,1.37c0.03,0.06,0.06,0.11,0.09,0.16
				c1.91,3.24,3.56,6.19,4.91,8.64c1.22,2.22,2.17,4.03,2.83,5.29c0.08,0.16,0.15,0.3,0.23,0.44c0.3,0.59,0.52,1.02,0.64,1.27
				c0.04,0.08,0.07,0.14,0.09,0.18c0.03,0.05,0.04,0.07,0.04,0.07s0.01,0.02,0.02,0.05c0.04,0.1,0.14,0.36,0.28,0.75
				c0.26,0.68,0.66,1.77,1.12,3.12c0.02,0.06,0.04,0.12,0.06,0.18c0.07,0.2,0.13,0.4,0.2,0.6c0.11,0.34,0.23,0.69,0.34,1.06
				c0.13,0.4,0.26,0.8,0.38,1.22c0.06,0.2,0.12,0.41,0.19,0.63c0.13,0.44,0.26,0.89,0.39,1.34c0.11,0.39,0.21,0.78,0.32,1.17
				c0.08,0.33,0.17,0.66,0.25,1c0.1,0.4,0.2,0.8,0.29,1.2c0.05,0.23,0.11,0.47,0.15,0.71c0.08,0.36,0.16,0.72,0.23,1.08
				c0.02,0.09,0.04,0.19,0.05,0.28c0.09,0.46,0.17,0.91,0.24,1.36c1.11,7.19-0.64,10.9-5.12,26.06c-1.42,4.8-6.94,23.02-6.94,23.02
				l-59.27,283.95l-2.86,13.73l-0.32,1.52c-5.82,27.68,5.48,32.72,5,35.9c-0.49,3.18-35.06,181.6-35.06,181.6
				c-1.36,7.24-7.53,10.87-16.11,12.08c-15.57,2.18-39.09-3.59-56.19-10.1c-0.69-0.26-1.38-0.53-2.05-0.8
				c-0.67-0.26-1.32-0.52-1.97-0.79c-0.34-0.14-0.67-0.28-1-0.42c-0.66-0.28-1.31-0.56-1.95-0.84c-0.32-0.14-0.63-0.28-0.94-0.42
				c-1.27-0.56-2.47-1.13-3.6-1.69c-0.4-0.2-0.79-0.4-1.17-0.59c-0.01,0-0.02-0.01-0.03-0.01c-0.37-0.2-0.73-0.39-1.08-0.58
				c-0.09-0.05-0.18-0.1-0.27-0.14c-0.29-0.16-0.58-0.32-0.85-0.47c-0.37-0.21-0.72-0.41-1.06-0.62c-0.19-0.11-0.37-0.22-0.54-0.33
				c-0.11-0.06-0.22-0.13-0.33-0.2c-0.26-0.17-0.52-0.33-0.76-0.49c-0.59-0.38-1.11-0.76-1.58-1.12c-1.71-1.33-3.39-2.66-5.06-4
				c-1.67-1.35-3.32-2.7-4.95-4.06c-0.01,0-0.01-0.01-0.01-0.01c-14.78-12.29-28-25.21-39.84-38.63c-0.01-0.01-0.03-0.03-0.04-0.05
				c-0.11-0.12-0.22-0.25-0.32-0.37c-0.88-0.99-1.75-1.98-2.6-2.98c-1.99-2.31-3.94-4.64-5.85-6.98c-1.84-2.26-3.65-4.53-5.41-6.81
				c-0.01-0.01-0.02-0.02-0.03-0.04c-0.82-1.06-1.63-2.12-2.44-3.19c-1.84-2.43-3.64-4.88-5.4-7.34
				c-9.64-13.46-18.07-27.28-25.42-41.32c-2.42-4.63-4.73-9.28-6.92-13.95c-0.09-0.19-0.17-0.37-0.26-0.55
				c-0.64-1.36-1.26-2.71-1.87-4.07c-0.71-1.56-1.4-3.11-2.08-4.67c-1.36-3.13-2.67-6.26-3.94-9.39c-0.63-1.56-1.25-3.12-1.86-4.69
				c-7.41-19.07-13.11-38.34-17.39-57.5c-0.01-0.05-0.02-0.11-0.04-0.16c-0.39-1.74-0.77-3.47-1.13-5.2
				c-1.14-5.43-2.17-10.84-3.1-16.23c-0.21-1.26-0.43-2.53-0.63-3.79c-0.24-1.43-0.46-2.86-0.69-4.29
				c-0.21-1.38-0.41-2.77-0.61-4.14c-0.21-1.45-0.41-2.9-0.6-4.35c-0.15-1.1-0.29-2.19-0.43-3.29c-0.16-1.25-0.32-2.49-0.46-3.74
				c-0.16-1.29-0.31-2.58-0.45-3.86c-1.63-14.64-2.55-29.05-2.91-43.08c-0.09-3.33-0.14-6.63-0.16-9.91
				c-0.01-1.37-0.02-2.74-0.02-4.1c0-1.55,0.01-3.1,0.02-4.64c0.01-1.54,0.03-3.08,0.06-4.61c0.02-1.24,0.04-2.48,0.07-3.71
				c0.01-0.39,0.02-0.78,0.03-1.17c0.03-1.05,0.05-2.1,0.09-3.14c0-0.24,0.01-0.49,0.02-0.74c0.1-2.94,0.21-5.87,0.35-8.76
				c0.04-0.98,0.09-1.96,0.14-2.93c0.06-1.13,0.12-2.26,0.19-3.38c0.07-1.31,0.15-2.62,0.24-3.92c0.08-1.3,0.17-2.58,0.26-3.86
				c0.09-1.3,0.19-2.6,0.29-3.89c0.1-1.3,0.2-2.59,0.31-3.88c0.3-3.55,0.62-7.05,0.97-10.5c0.92-9.05,2-17.74,3.19-26.02v-0.01
				c0.25-1.72,0.5-3.43,0.76-5.11c0.26-1.68,0.52-3.35,0.78-5c1.28-7.99,2.64-15.53,4.03-22.55c0.26-1.33,0.53-2.64,0.79-3.93
				c0.07-0.33,0.13-0.66,0.2-0.98c0.19-0.93,0.38-1.85,0.58-2.76c0-0.03,0.01-0.05,0.01-0.07c0.15-0.7,0.3-1.39,0.44-2.08
				c0.9-4.18,1.79-8.14,2.67-11.86c0.2-0.86,0.41-1.71,0.61-2.55c0.59-2.48,1.18-4.83,1.75-7.07c0.09-0.35,0.18-0.69,0.26-1.02
				c0.12-0.5,0.25-0.99,0.38-1.48c0.15-0.6,0.31-1.2,0.46-1.78c0.74-2.81,1.45-5.39,2.1-7.73c0.24-0.88,0.48-1.72,0.72-2.52
				c0.15-0.54,0.3-1.06,0.45-1.57c2.15-7.37,3.54-11.38,3.54-11.38l8.15-31.34l2.2-8.43c0.03-0.11,0.05-0.21,0.07-0.29
				c1.74-6.67,3.47-13.35,5.21-20.02l7.37-28.33l0.43-1.64l9.71-37.33c0,0,1.84-7.06,3.97-15.25l0.71-2.74
				c0.8-3.09,1.63-6.25,2.39-9.19l0.45-1.73l0.43-1.65l0.39-1.5c0.34-1.3,0.65-2.49,0.92-3.54l0.3-1.16
				c0.52-1.99,0.85-3.23,0.87-3.32v-0.01l9.63-37.04l6.66-25.57l9.01-34.67c0,0,0.08-0.31,0.22-0.84l0.12-0.45
				c0.16-0.64,0.39-1.5,0.65-2.49l0.2-0.77c0.55-2.11,1.21-4.68,1.85-7.11l0.22-0.86c1.01-3.87,1.86-7.15,1.87-7.18l7.61-29.25
				l6.17-23.73l3.28-12.61l7.25-27.84l5.03-19.37c0,0,0.19-0.73,0.49-1.9l0.15-0.57c0.03-0.1,0.05-0.2,0.08-0.31l0.17-0.65
				c0.18-0.67,0.37-1.41,0.57-2.19l0.21-0.8c0.07-0.26,0.14-0.53,0.21-0.81l0.32-1.24c0.22-0.83,0.44-1.67,0.65-2.49l0.21-0.81
				c0.14-0.52,0.28-1.04,0.4-1.53l0.17-0.65c0.13-0.51,0.26-0.98,0.37-1.41l0.14-0.55c0.31-1.18,0.5-1.93,0.51-1.96l7.69-29.54
				l5.65-21.73l4.17-16l6.94-26.7l5.82-22.38l3.82-14.69c1.15-4.4,2.01-9.08,3.16-13.63c0.79-3.13,1.72-6.19,2.97-9.06
				c1.75-4.03,4.47-7.76,8.28-9.95c7.05-4.05,16.93-4.4,24.78-6.1c5.76-1.25,11.5-2.64,17.24-4.04c11.98-2.91,23.97-5.84,36.14-7.6
				c39.31-5.68,79.22-8.6,118.92-6.27c5.59,0.33,11.22,0.66,16.78,1.33c5.53,0.67,7.4,1.32,9.15,3.42
				C1377.9,51.13,1375.56,58.75,1375.56,58.75z"/>
		</g>
		<path class="st4" d="M1673.68,634.52"/>
		<g>
			<path class="st4" d="M1661.13,615.33c0,0,7.91,9.99,14.51,14.72c6.6,4.73,18.01,9.64,24.14,11.74c6.13,2.1,18.32,3.85,23.48-1.1
				s4.8-9.94,3.52-12.81s-4.91-5.09-12.39-5.88C1706.73,621.19,1664.08,615.33,1661.13,615.33z"/>
			<path class="st4" d="M1689.26,612.44c0,0,14.8,6.73,27.98,1.81c10.04-3.76,7.69-11.82,7.94-15c0.25-3.18,0.42-6.9-3.75-7.42
				c-5.05-0.63-6.24,2.76-8.9,4.72C1706.7,600.83,1689.26,612.44,1689.26,612.44z"/>
		</g>
		<g>
			<path class="st3" d="M1373.42,66.27l-7.18,23.68l-0.43,1.42l-0.02,0.07c0,0-175.34-2.13-197.32-5.97
				c-12.07-2.11-21.36-0.1-26.58,1.83c0.79-3.13,1.72-6.19,2.97-9.06c1.75-4.03,4.47-7.76,8.28-9.95c7.05-4.05,16.93-4.4,24.78-6.1
				c5.76-1.25,11.5-2.64,17.24-4.04c2.07-0.16,4.15-0.36,6.25-0.61c13.35-1.62,26.62-0.73,40.03-0.31
				c25.28,0.79,50.53,2.2,75.75,4.06c18.73,1.38,37.45,2.99,56.13,4.96C1373.39,66.27,1373.42,66.27,1373.42,66.27z"/>
			<path class="st3" d="M1359.34,113.06l-6.4,21.41c-13.83,2.23-62.01-0.22-62.01-0.22l-70.01-4.35
				c-66.79-2.73-86.02-14.2-86.02-14.2l3.82-14.69l9.71-1.16c0,0,14.87-1.07,45.87-2.67c30.99-1.61,71.31,1.57,93.62,3.52
				c22.32,1.95,70.91,10.61,70.91,10.61L1359.34,113.06z"/>
			<path class="st3" d="M1346.06,157.47v0.03l-7.18,24h-0.01v0.01c-0.27,0.18-0.42,0.29-0.42,0.29s-76.93,0.93-141.64-7.37
				c-47.29-6.07-67.31-8.74-74.66-9.73l6.94-26.7c11.01-0.3,59.05-1.42,95.97,1.21c41.95,2.99,100.88,11.93,120.97,18.12
				C1346.03,157.33,1346.04,157.38,1346.06,157.47z"/>
			<path class="st3" d="M1331.11,207.66c-0.9,3.36-3.09,11.54-5.84,21.85h-0.01c-1.04-0.05-79.2-4.12-114.68-9.36
				c-34.02-5.02-81.03-12.54-98.25-17.72l5.65-21.73c0,0,94.96,3.83,138.68,11.52c43.72,7.68,74.16,15.32,74.16,15.32
				L1331.11,207.66z"/>
			<path class="st3" d="M1319.35,251.65c-2.53,9.49-5.12,19.2-7.39,27.77c-0.39,1.48-64.21-7.06-69.84-7.7
				c-47.65-5.46-94.96-13.3-142.13-21.88c0,0,4.62-17.74,4.65-17.87c0.39-1.51,22.88-2.35,25.15-2.4
				c11.51-0.25,23.03-0.06,34.53,0.57c32.92,1.81,65.4,8.09,97.94,12.87C1265.63,243.5,1319.13,252.48,1319.35,251.65z"/>
			<path class="st3" d="M1306.3,300.88c-0.25,0.97-0.47,1.82-0.66,2.56c-1.35,5.26-3.8,13.56-6.76,22.94
				c-3.6-7.82-22-8.06-29.02-8.9c-15.75-1.86-31.44-4.06-47.15-6.19c-22.94-3.11-45.9-6.1-68.87-8.95
				c-11.7-1.45-23.39-2.9-35.1-4.25c-3.29-0.38-30.74-2.36-31.03-1.04c2.42-9.2,4.84-18.41,7.26-27.61
				c0.42-1.62,26.59-0.72,29.36-0.71c61.75,0.28,122.6,12.37,181.05,31.83C1305.69,300.66,1306,300.76,1306.3,300.88z"/>
			<path class="st3" d="M1293.45,343.19c-2.69,8.07-5.46,16.09-8,23.01c-15.23-1.67-67.61-7.4-105.71-12.21
				c-40.27-5.08-91.56-18.04-101.48-20.6l6.17-23.73c15.22,0.96,74.87,4.9,111.45,9.86C1234.2,324.71,1284.51,340.36,1293.45,343.19
				z"/>
			<path class="st3" d="M1278.13,384.07c-6.53,12.85-12.1,12.72-23.14,20.46c-2.96,2.08-5.22,4.01-7.05,6.02
				c-0.74,0.81-19.41-4.68-21.12-5c-13.71-2.57-27.38-4.17-41.26-5.37c-40.3-3.49-80.57-8.88-120.04-17.85c0,0,5.11-19.62,5.13-19.7
				c-0.05,0.21,23.61-1.36,25.5-1.43c12.29-0.49,24.6-0.45,36.89,0.11c28.73,1.31,57.11,6.21,85.35,10.98
				C1238.4,375.68,1258.37,379.48,1278.13,384.07z"/>
			<path class="st3" d="M1236.72,435.12c-1.11,3.16-1.49,7.25-1.23,11.91l-115.09-3.61l-70.55-0.84c0,0,6.66-25.57,6.66-25.57
				c30.49-6.21,61.76-8.24,92.83-6.78c31.06,1.46,60.89,8.12,91.52,12.65C1240.71,422.86,1237.01,434.31,1236.72,435.12z"/>
			<path class="st3" d="M1248.63,453.42"/>
			<path class="st3" d="M1240.68,471.37c-70.99,7.77-142.33,22.49-209.18,48.01l-1.71,0.33c0,0,10.29-39.57,10.43-40.08
				c0.29-1.11,9.11-3.95,10.27-4.35c5.59-1.95,11.4-3.42,17.15-4.82c11.55-2.82,23.27-4.87,35.05-6.42
				c26.92-3.53,54.3-4.74,81.39-5.82c17.57-0.7,35.02-2.09,52.62-1.52C1238.03,461.59,1239.36,466.48,1240.68,471.37z"/>
			<path class="st3" d="M1250.25,492.64c-1.6-2.69-82.73,37.75-88.99,40.71c-36.01,17.02-71.77,34.13-106.54,53.62
				c-16.75,9.39-49.92,28.78-49.92,28.78s1.95-7.49,2.27-8.72c1.74-6.67,3.47-13.35,5.21-20.02c2.59-9.96,5.45-19.95,7.76-29.96
				c11.58-2.37,21.86-8.48,32.65-13.39c58.76-26.7,120.01-44.32,182.25-60.65c7.43-1.95,7.45-6.79,7.45-6.84
				C1244.6,481.87,1247.26,487.49,1250.25,492.64z"/>
			<path class="st3" d="M1262.4,508.68c-7.53,5.28-42.72,30.13-42.72,30.13s-132.98,99.32-211.61,162.08
				c-19.81,15.81-28.61,30.68-31.95,37.65c5.28-36.76,12.67-65.23,16.99-80.07l28.79-20.17c52.37-39.3,193.61-116.74,212.77-124.07
				c14.19-5.43,19.73-10.29,21.64-12.44C1258.26,504.35,1260.29,506.67,1262.4,508.68z"/>
			<path class="st3" d="M1274.37,520.16c-6.98,6.95-36.51,36.41-41.45,41.34c-5.61,5.61-116.43,118.76-116.43,118.76l-55.7,56.97
				L970.07,837.7c-0.67-25.98,0.59-50.67,2.86-73.14c24.1-41.12,178.46-155.66,203.84-177.9c27.11-23.77,56.98-43.56,72.19-56.07
				c15.21-12.5,17.62-17.78,17.62-17.78l0.31-0.21C1269.4,514.79,1271.91,517.36,1274.37,520.16z"/>
			<path class="st3" d="M1289.16,539.88c0.19,0.26,0.37,0.52,0.56,0.77c1.25,1.74-52.94,61.47-57.93,67.55
				c-19.15,23.31-37.84,47-56.24,70.91c-31.34,40.73-62.07,81.93-92.71,123.19c-29.15,39.25-56.56,81.12-89.85,117
				c-0.66,0.71-11.82,10.73-11.87,10.52c-3.7-16.5-6.35-32.92-8.14-49.05c5.66-10.45,22.68-41.15,35.3-56.54
				c37.78-46.08,82.93-87.55,124.04-130.9c25.85-27.25,51.57-54.61,77.17-82.1c12.8-13.74,25.57-27.51,38.31-41.31
				c3.27-3.54,35.79-37.79,35.48-38.25C1285.25,534.42,1287.2,537.15,1289.16,539.88z"/>
			<path class="st3" d="M1295.5,550.51c-0.14,0.99-5.84,9.93-7.7,13.13c-7.82,13.39-15.46,26.54-23.76,39.61
				c-10.88,17.14-21.77,34.27-32.62,51.43c-30.24,47.83-60.29,95.79-89.63,144.17c-39.48,65.11-73.42,132.97-110.91,199.17
				c-5.05,8.92-10.17,17.81-15.43,26.62c-6.44-12.3-12.06-24.77-16.93-37.34c0.33-7.33,2.17-17.71,7.34-31.88
				c6.96-19.07,19.48-35.65,31.08-52.27c17.66-25.29,36.56-49.51,54.54-74.52c13.73-19.09,27.46-38.18,41.18-57.27
				c30.59-42.54,61.18-85.08,91.78-127.62c21.04-29.25,42.07-58.51,63.11-87.76c2.06-2.86,6.19-8.61,6.19-8.61
				c0.07,0.1,1.74,2.43,1.78,2.96C1295.52,550.37,1295.52,550.34,1295.5,550.51z"/>
			<path class="st3" d="M1304.65,567.23c-56.45,111.43-112.6,222.37-162.6,336.92c-16.1,36.88-31.79,73.94-47.06,111.17
				c-6.59,16.09-13.7,31.93-20.27,48.04c-1.16,2.83-13.76,28.12-11.77,30.37c-7.98-9.04-15.33-18.31-22.09-27.76
				c-5.99-8.38,2.78-32.4,5.75-40.36c6.47-17.33,14.59-34.32,22.21-51.17c47.32-104.56,107.47-203.91,164.33-303.54
				c15.17-26.59,67.95-110.66,67.36-111.72c2.43,4.43,3.83,7.25,3.83,7.25S1304.46,566.71,1304.65,567.23z"/>
			<path class="st3" d="M1308.94,582.82c-1.18,0.12-13.74,35.53-21.19,55.31c-7.44,19.78-99.49,296.57-114.25,344.09
				c-12.64,40.71-33.78,140.35-41.51,167.72c-8.65-3.29-15.65-6.77-19.18-9.51c-3.41-2.65-6.75-5.34-10.01-8.05
				c-5.19-10.88-9.58-27.57-5.9-50.36c4.62-28.59,16.18-56.72,26.1-83.77c11.09-30.26,178.38-415.83,182.77-427.9
				c1.38,3.76,2.56,7.84,3.09,11.83C1308.89,582.39,1308.92,582.6,1308.94,582.82z"/>
			<path class="st3" d="M1239.35,966.36c-0.49,3.18-35.06,181.6-35.06,181.6c-1.36,7.24-7.53,10.87-16.11,12.08
				c-9.61-13.18-18.25-27.3-20.55-43.63c-6.34-45.04,8.79-91.46,23.14-133.6c26.11-76.65,76.18-250.34,76.18-250.34
				s7.79-25.55,9.32-32.09c1.45-6.22,23.28-84.69,27.47-92.14l-66.21,306.97l-2.9,13.46c0.01,0.09,0.02,0.18,0.04,0.27l-0.32,1.52
				C1228.53,958.14,1239.83,963.18,1239.35,966.36z"/>
			<path class="st3" d="M1266.7,1007.16"/>
		</g>
		<g>
			<path class="st2" d="M912.07,207.55c-1.39,2.42-2.93,5.37-4.56,8.94c-3.11-0.18-7.75-1.05-13.06-4.01
				c-9.69-5.41-23.09-15.36-23.09-15.36c-14.28-6.07-64.22-44.55-65.81-45.79c-1.6-1.24-15.08-11.28-16.15-12.42
				c-0.98-1.03-2.95-4.61-1.61-6.03c0.76-1.13,11.57-0.06,15.98,4.79c4.44,4.89,18.03,14.24,18.03,14.24
				c11.09,10.22,79.39,52.08,83.69,53.86C907.76,206.7,910.23,207.25,912.07,207.55z"/>
			<path class="st2" d="M902.62,228.51c-0.69,1.89-1.38,3.9-2.08,6.02c-12.35-5.15-59.54-26.9-59.54-26.9
				c-12.56-5.67-24.98-11.63-37.3-17.8c-6.16-3.09-12.3-6.23-18.42-9.41c-5.93-3.09-12.24-5.91-17.9-9.48
				c-0.93-0.59-1.82-1.29-2.68-1.98c-0.81-0.66-1.64-1.35-2.32-2.14c-0.64-0.75-1.19-1.57-1.66-2.44c-0.16-0.29-0.31-0.6-0.32-0.93
				c-0.02-0.62,0.43-1.25,0.91-1.59c1.95-1.4,5.44,0.92,7.34,1.62c3.11,1.14,6.21,2.32,9.31,3.51c6.18,2.4,12.33,4.9,18.42,7.5
				c12.2,5.21,24.21,10.84,36.03,16.87c18.34,9.36,36.07,19.82,54.41,29.18C887.88,221.07,902.72,228.25,902.62,228.51z"/>
			<path class="st2" d="M894.18,257.09c-0.9,3.73-1.79,7.68-2.66,11.87c-11.27-1.9-47.73-14.71-59.99-19.15
				c-12.58-4.55-68.47-25.41-68.47-25.41l-39.83-14.93c5.15-2.64,3.96-10.34,3.74-11.52c17.47,3.17,59.27,19.64,90.51,33.07
				C847.25,243.82,887.21,255.15,894.18,257.09z"/>
			<path class="st2" d="M887.41,291.52c-0.29,1.81-0.57,3.65-0.85,5.53c-0.16,1.06-0.3,2.12-0.43,3.18
				c-20.06-4.83-68.87-16.6-101.13-24.59c-41.47-10.26-80.41-21.97-80.41-21.97c4.69-4.19,3.53-9.17,3.06-10.6
				c8.87,2.15,50.33,12.34,69.12,18.96c21.11,7.43,110.28,28.99,110.28,28.99L887.41,291.52z"/>
			<path class="st2" d="M885.27,321.89c-4.62,0.01-28.85,0.09-41.91-0.39c-14.49-0.52-70.08-5.33-95.87-7.22
				c-20.57-1.52-42.64-4.92-50.72-6.24c2.12-4.37-1.45-10.54-1.45-10.54c-0.2-0.18-0.41-0.36-0.6-0.53
				c19.65,0.92,88.54,5.43,111.54,7.34c21.93,1.82,68.94,7.73,78.91,8.99C885.11,316.2,885.15,319.06,885.27,321.89z"/>
			<path class="st2" d="M889.63,349.9l-61.01,7.2l-112.23,10.35l-17.83,3.43c1.56-6.23-0.15-11.52-2.08-15.1
				c4.51-1.04,10.73-1.9,19.13-2.01c22.94-0.31,87.7-5.68,104-5.38c16.31,0.3,36.59-2.64,36.59-2.64
				c19.32-2.75,29.11-1.75,32.1-1.28C888.71,346.3,889.15,348.11,889.63,349.9z"/>
			<path class="st2" d="M842.02,374.72c30.28-6.73,45.85-8.67,52.3-9.23c-0.04,0.33-0.07,0.7-0.09,1.11
				c-0.48,8.46-12.29,8.65-14.33,9.08c-2.04,0.44-45.07,12.62-45.07,12.62S731.71,416.96,724,418.91
				c-5.86,1.48-9.34-1.89-10.68-3.58c-0.21-1.42-0.22-1.71-0.2-1.76c-0.07-0.02-0.14-0.03-0.2-0.04
				c15.71-8.08,59.79-19.88,68.61-22.23C791.38,388.69,842.02,374.72,842.02,374.72z"/>
			<path class="st2" d="M910.18,395.16l-27.41,13.98c-26.46,13.92-80.05,39.5-80.05,39.5l-54.95,24.61c0.41-5.54-4.58-8.37-6.65-9.3
				c4.3-2.3,10.16-5.51,18.06-9.97c24.47-13.81,119.66-54.73,132.54-59.91c8.02-3.22,11.1-6.85,12.27-9.14
				C905.99,388.51,908.07,391.92,910.18,395.16z"/>
			<path class="st2" d="M925.58,415.62c-2.79,1.73-6.81,3.48-6.81,3.48s-33.79,20.1-45.87,27.65
				c-12.08,7.54-61.31,41.04-61.31,41.04l-27.04,18.66c0,0,0,0-0.01,0c-1.47-3.88-5.8-3.18-5.8-3.18c-0.1,0.01-0.21,0.02-0.31,0.02
				c0.03-0.35,0.1-0.73,0.22-1.15c1.71-5.98,33.91-34.35,74.38-56.82c40.46-22.47,50.42-30.7,50.42-30.7
				c3.96-2.75,9.56-7.16,13.23-10.11C919.7,408.58,922.7,412.29,925.58,415.62z"/>
		</g>
		<path class="st4" d="M1867.12,628.34c0,0-3.96-2.21-3.12-9.61c0,0,0.83-5.22,7.93-5.56c7.35-0.35,9.91,0.08,11.23,2.58
			c1.52,2.86,0.91,11.07,0.5,11.6c-0.57,0.74-1.5,1.34-2.63,1.46c-1.13,0.12-2.62,0.26-5.94,0.34
			C1871.95,629.24,1868.38,629.55,1867.12,628.34z"/>
		<path d="M1410.28,454.51c0,0,31.21-7.03,63.6-27.67c32.4-20.65,56.46-38.26,95.01-49.11c38.55-10.86,72.57-2.57,84.88,6.85
			c12.31,9.42,12.02,9.74,19.57,15.69c0,0,4.36,2.67,7.8,4.45c3.44,1.78,6.85,4.08,8.54,4.54c1.68,0.46,2.19,0.61,6.31,0.78
			c4.12,0.17,7.65,0.39,8.77,2.73c1.11,2.35,0.73,5.1-0.13,5.89c-0.86,0.78-2.37,1.72-5.93,1.86c0,0-5.78-0.21-8.44,1.41
			c-2.66,1.62-25.16,13.46-36.54,16.42c-11.38,2.97-35.27,9.4-69.18,8.14c-33.91-1.26-69-3-87.18-2.69s-23.49-0.4-36.64,3.44
			c-13.14,3.83-22.53,10.56-22.53,10.56s-12.86,7.97-18.28,4.18s-8.01-2.49-9.57-1.73c-1.56,0.75-2.68,1.43-3.48,2.27
			C1406.1,463.38,1410.28,454.51,1410.28,454.51z"/>
		<path d="M1441.37,388.18c0,0,0.21,9.42,4.44,11.08c4.23,1.66,11.3-0.85,17.16-3.58c5.86-2.73,46.29-25.38,59.67-31.02
			s40.22-16.75,64.1-19.97c23.88-3.22,40.42-3.6,59.21-0.74c18.78,2.86,33.66,7.87,37.31,9.18c3.66,1.31,6.48,2.53,7.71-1.18
			c1.23-3.7-2.1-6.79-4.69-8.67c-2.58-1.87-10.92-9.74-35.24-11.69s-68.37,2.71-76.66,5c-8.29,2.29-39.41,8.38-67.14,22.36
			c-27.74,13.98-30.11,20.08-44.65,25.56C1448.06,389.98,1441.37,388.18,1441.37,388.18z"/>
		<path d="M1301.54,515.47c-17.8-25.03-25.77-31.71-25.77-31.71s-11.3-10.47-6.37-24.22c0,0,0.75-3.23,5.66-8.57
			c4.91-5.34,10.78-10.84,13.55-25.09c0,0-0.2-12.42,6.23-8.98c6.42,3.44,18.07,8.01,17.25,18.03c0,0,8.69,1.23,6.47,10.1
			c-2.21,8.87-0.91,2.83-2.82,11.4c-1.91,8.56-7.31,17.68-2.04,27.17c5.28,9.48,15.1,3.16,15.1,3.16s-12.51-10.8-5.63-24.04
			c6.87-13.24,3.52-22.17,3.52-22.17s-4.34-18.83-30.67-32.3c0,0-12.4-6.29-23.88,4.33c-11.49,10.63-16.13,30.24-15.62,42.76
			s4.74,21.01,11.34,30.66c6.59,9.65,10.01,8.09,25.48,28.21c0,0,8.9,10.85,11.51,17.84c2.62,6.98,10.74,11.83,15.94,13.06
			c5.2,1.23,10.26,2,10.26,2S1319.34,540.51,1301.54,515.47z M1272.6,428.29c5.86-8.9,8.05-3.33,8.05-3.33s0.73,6.9-4.81,15.18
			c-5.55,8.29-5.5,6.93-5.5,6.93S1266.74,437.2,1272.6,428.29z"/>
		<path d="M1311.67,435c0,0-3.13-0.39-9.85,6.03c-6.73,6.42-22.1,15.2-21.32,26.37c0.79,11.17,11.59,22.52,11.59,22.52
			s11.4,11.16,13.18,13.09c1.78,1.93,6.64,7.8,7.58,10.39c0.94,2.59,4.52,11.27,12.08,10.23c7.56-1.03,8.39-4.45,8.18-6.94
			c0,0-0.11-1.11-2.05-4.27s-2.71-7.24-3.2-8.72c-0.49-1.48-2.56-8.39-7.4-10.53c-4.84-2.14-3.32-0.76-3.64,2.63
			c-0.32,3.38,0.58,5.86,0.5,6.45c-0.09,0.6-0.25,0.83-0.74,0.85s-1.01,0.11-1.29-1.03c-0.28-1.15-0.34-1.35-0.34-1.35
			s-28.82-22.81-24.67-33.39c4.15-10.58,7.05-11.58,17.02-20.63S1311.67,435,1311.67,435z"/>
		<path class="st5" d="M1471.07,610.11c0,31.78-19.91,58.92-47.95,69.59c-8.23,3.14-17.16,4.86-26.5,4.86
			c-8.85,0-17.34-1.54-25.21-4.38c-10.58-3.81-20.05-9.94-27.79-17.79c-13.26-13.45-21.44-31.91-21.44-52.28
			c0-7.6,1.14-14.93,3.26-21.83c1.36-2.45,2.52-3.18,2.52-3.18s30.68,8.24,37.89-7.63c2.36-5.2-0.44-13.76-3.15-15.68
			c-1.5-1.07-4.54-1.9-6.96-2.45c-2.43-0.55-7.59-1.47-8.06-3.7c0,0,1.09-1.93,3.67-4.62c12.54-9.63,28.23-15.35,45.27-15.35
			c12.1,0,23.53,2.89,33.63,8.01C1454.47,555.97,1471.07,581.1,1471.07,610.11z"/>
		<path class="st1" d="M1495.83,751.82c0.14,5.33-5.77,7.82-5.77,7.82c-5.3,3.64-16.72,16.15-16.72,16.15
			c-14.38,14.7-26.45,36.3-28.4,42.67s-11.7,32.54-12.21,33.78c-0.5,1.25-5.37,17.99-30.11,54.98c-24.74,37-46.89,45.38-54.7,49.3
			c-7.81,3.93-23.66,8.29-34.8,9c-11.13,0.72-20.6,0.37-36.28-2.76c-15.68-3.13-23.66-8.09-23.66-8.09
			c-13.02-5.23-6.88-24.86-6.88-24.86c22.62-94.27,35.97-157.89,44.55-208.81c13.64-80.89,23.7-119,23.7-119
			c0.09,0.47,0.17,0.94,0.27,1.41c-0.18,2.21-0.27,4.44-0.27,6.7c0,22.46,9.02,42.81,23.64,57.64c8.53,8.65,18.97,15.41,30.64,19.61
			c8.18,2.95,16.58,4.62,25.74,4.8c0.37,0.18,0,0,0,0C1421.49,728.65,1495.83,751.82,1495.83,751.82z"/>
		<path class="st0" d="M963.34,575.54l5.35-13.56c0,0-8.38,1.55-12.69,1.06s-15.65-2.27-22.09,12.61
			c-6.44,14.88-12.36,17.67-24.6,41.23c0,0-5.46,12.87-27.04,14.31c-0.02,0-0.04,0-0.07,0.01c-36.31,1.79-65.22,31.82-65.22,68.62
			c0,14.97,4.8,28.81,12.92,40.11L804,723.58c-4.24-2.68-9.89-1.39-12.55,2.85c-2.67,4.24-1.4,9.9,2.84,12.56l35.08,22.14l3.09,1.95
			l7.44,4.69l2.79,1.77l6.99,4.41l2.52,1.59l6.18,3.9l3.04,1.91L895,802.56c4.24,2.68,9.89,1.4,12.55-2.84
			c2.67-4.24,1.4-9.9-2.84-12.57l-31.21-19.7c3.93,0.7,7.99,1.09,12.12,1.09c37.92,0,68.65-30.77,68.65-68.7
			c0-17.52-6.56-33.5-17.35-45.63l0.02,0c0,0-0.02-0.02-0.06-0.05c-0.48-0.54-0.98-1.07-1.47-1.59c-2.12-2.81-5.25-9.44-1.29-21.43
			C940.16,612.86,952.42,603.52,963.34,575.54z M884.07,742.48c-0.44,0.02-0.88,0.03-1.32,0.03c-1.01,0-2-0.04-2.99-0.13
			c-2.13-0.17-4.2-0.52-6.2-1.05c-1.25-0.32-2.47-0.71-3.66-1.16c-2.4-0.9-4.68-2.05-6.79-3.42c-0.93-0.6-1.83-1.23-2.69-1.9
			c-1.93-1.5-3.71-3.19-5.29-5.05c-0.9-1.04-1.74-2.13-2.51-3.26c-3.97-5.84-6.3-12.9-6.3-20.49c0-20.14,16.31-36.46,36.43-36.46
			c20.11,0,36.42,16.33,36.42,36.46C919.17,725.74,903.57,741.78,884.07,742.48z"/>
		<path d="M1730.73,542.22l-1.98,0.2c0,0-8.88-7.34-31.79-1.1c0,0,6.29-17.87,20.25-16.09
			C1731.17,527.01,1730.96,535.62,1730.73,542.22z"/>
		<path d="M1678.56,545.04c0,0-9.57-12.44,5.27-29.38c0,0,2.95-3.51-0.32-5.35c-3.27-1.84-5.11-0.45-6.9,2.61
			c-1.78,3.07-12.07,18.58-9.49,29.4c2.59,10.83,9.64,7.8,9.64,7.8S1680.27,549.08,1678.56,545.04z"/>
		<path class="st0" d="M1059.84,113.13c1.87-3.98,5.51-6.64,9.4-8.56c4.09-2.01,35.19-16.3,47.11-20.39
			c3.37-1.16,11.59-4.96,12.44-5.35c0.34-0.16,3.77-0.27,3.85-0.17c0.42,0.61-0.27,3-0.38,3.67c-0.33,2.16-0.75,4.3-1.18,6.44
			c-0.6,2.99-1.25,5.98-1.91,8.96c-0.83,3.75-1.7,7.5-2.58,11.25c-1.04,4.44-2.1,8.87-3.18,13.3c-1.22,5.04-2.46,10.08-3.71,15.11
			c-1.38,5.57-2.77,11.13-4.17,16.69c-1.51,6.01-3.04,12.03-4.57,18.04c-1.63,6.38-3.26,12.76-4.9,19.14
			c-1.72,6.67-3.44,13.34-5.17,20.01c-1.78,6.88-3.57,13.76-5.36,20.65c-1.83,7.02-3.66,14.03-5.49,21.04
			c-1.85,7.07-3.7,14.14-5.56,21.2c-1.85,7.04-3.7,14.09-5.55,21.13c-1.83,6.94-3.65,13.88-5.48,20.82
			c-1.78,6.76-3.56,13.51-5.34,20.27c-1.71,6.5-3.43,12.99-5.14,19.49c-1.62,6.16-3.25,12.31-4.87,18.47
			c-1.51,5.74-3.02,11.47-4.53,17.21c-1.38,5.24-2.75,10.48-4.12,15.72c-1.22,4.66-2.44,9.32-3.65,13.99
			c-1.04,4.01-2.08,8.01-3.11,12.02c-0.84,3.27-1.68,6.55-2.5,9.82c-0.62,2.46-1.23,4.92-1.83,7.39c-0.3,1.23-0.59,2.45-0.87,3.68
			c-0.15,0.68-0.15,2.06-0.91,2.33c-0.7,0.25-2.39-0.46-3.11-0.63c-1.07-0.26-2.13-0.55-3.17-0.89c-3.92-1.25-7.84-3.08-10.76-6.04
			c-2.54-2.57-4.43-6.59-5.31-10.07c-1.2-4.74,0.18-9.08,3.91-12.23c1.85-1.56,3.85-2.92,6.06-3.91c1.44-0.64,2.88-1.25,4.38-1.73
			c1.58-0.5,3.37-0.14,4.92-0.72c0.33-0.12,0.63-0.35,0.77-0.68c0.22-0.5-0.02-1.09-0.34-1.54c-0.73-1.04-1.87-1.72-3.04-2.22
			c-2-0.86-4.02-1.61-5.97-2.6c-1.79-0.9-3.54-1.9-5.18-3.05c-3.03-2.12-5.77-4.82-7.29-8.24c-2.14-4.81-1.44-10.39,0.58-15.12
			c1.73-4.08,4.47-7.8,7.83-10.69c3.45-2.97,7.42-4.92,11.9-5.29c3.82-0.32,5.11-0.22,8-0.64c1.17-0.17,2.97-0.56,3.64-1.67
			c0.28-0.47,0.32-1.04,0.26-1.58c-0.22-2.12-1.76-3.7-3.54-4.71c-1.64-0.93-3.48-1.45-5.2-2.22c-6.56-2.93-13.22-8.48-14.89-15.77
			c-1.64-7.21,1.32-15.99,5.44-21.89c2-2.86,4.56-5.35,7.53-7.2c3.4-2.12,7.03-2.65,10.78-3.82c2.26-0.71,4.47-1.92,5.99-3.77
			c1.44-1.75,2.96-4.96,1.23-6.97c-0.68-0.79-1.62-1.3-2.52-1.83c-2.04-1.19-3.93-2.52-5.83-3.91c-1.89-1.38-3.45-2.52-4.59-4.65
			c-3.08-5.77-2.09-13.06-0.85-19.19c0.84-4.18,2.17-8.69,5.36-11.71c1.88-1.78,4.27-2.37,6.69-3.19
			c1.69-0.57,11.05-2.51,11.41-5.02c0.1-0.69,0.21-2.26-1.38-2.79c-7.6-2.51-15.29-8.65-17.09-17c-1.15-5.35,0.01-11.73,1.92-16.81
			c1.15-3.04,3.24-5.75,5.97-7.54c2.44-1.6,5.17-2.68,7.88-3.72c2.56-0.99,5.44-1.83,7.62-3.56c0.99-0.78,1.77-1.95,1.71-3.21
			c-0.06-1.39-1.06-2.41-1.91-3.39c-0.95-1.09-1.95-2.12-3-3.1c-2.17-2.01-4.53-3.82-6.99-5.47c-3.26-2.19-6.41-4.94-7.85-8.69
			c-0.57-1.48-0.85-3.06-0.88-4.64c-0.13-7.06,4.76-13.15,10.82-16.25c4.77-2.44,10.05-2.41,15.24-3.08
			c1.2-0.15,2.47-0.36,3.39-1.14c1.47-1.23,1.55-3.58,0.66-5.28s-2.52-2.87-4.16-3.86c-2.98-1.8-5.59-3.81-7.96-6.38
			c-5-5.41-8.99-13.93-6.15-21.26C1059.6,113.68,1059.72,113.4,1059.84,113.13z"/>
		<path class="st6" d="M1007.68,427.22c-1.65,0.61-4.47-0.44-6.07-0.76c-2.43-0.49-4.84-1.04-7.24-1.67
			c-4.68-1.23-9.29-2.76-13.73-4.69c-3.37-1.47-6.43-3.35-9.51-5.33c-2.1-1.35-4.45-2.39-6.33-4.07c-2.79-2.5-3.5-6.88-4.29-10.35
			c-1.18-5.2,1.72-6.97,5.29-10.06c1.6-1.39,3.26-2.72,4.89-4.08c0.99-0.83,2-1.66,3.18-2.18c2.13-0.93,4.48-0.69,6.74-0.6
			c2.32,0.09,4.64-0.17,6.96-0.29c3.68-0.19,7.39-0.76,11.06-0.48c1.9,0.14,5.54-0.13,6.5,2c0.28,0.62,0.32,1.31,0.35,1.99
			c0.09,1.83,0.12,3.67,0.09,5.5c-0.04,2.72-0.21,5.46,0.32,8.12c0.92,4.67,4.16,8.2,7.14,11.72c1.06,1.25,4.28,3.62,3.76,5.5
			c-0.11,0.41-0.4,0.74-0.67,1.06c-2.29,2.63-4.67,5.2-7.12,7.68c-0.33,0.33-0.66,0.67-1.08,0.88
			C1007.84,427.15,1007.76,427.19,1007.68,427.22z"/>
		<path class="st7" d="M1010.38,449.28c-0.83,1.94-6.93,0.24-8.27-0.08c-4.02-0.98-7.94-2.4-11.77-3.97
			c-3.79-1.55-7.57-3.16-11.18-5.11c-1.82-0.98-3.59-2.04-5.28-3.23c-1.24-0.87-3.65-2.2-4.19-3.69c-0.24-0.67-0.06-1.44,0.31-2.06
			c0.37-0.61,0.91-1.1,1.45-1.58c0.09-0.08,0.19-0.17,0.31-0.2c0.13-0.03,0.27,0.01,0.39,0.05c3.95,1.19,8.03,1.9,12.13,2.39
			c5.81,0.7,11.9,0.77,17.34,3.21c5.58,2.5,8.28,7.31,8.84,13.25C1010.49,448.6,1010.52,448.96,1010.38,449.28z"/>
		<path class="st7" d="M910.67,374.94c-0.51,0.9-4.57-5.24-4.75-5.55c-1.48-2.5-2.83-5.09-3.87-7.81c-1.61-4.21-2.45-8.8-1.78-13.26
			c0.55-3.65,2.1-7.06,3.98-10.21c0.96-1.6,2.11-3.07,3.08-4.65c0.9-1.46,1.56-3.01,2.8-4.25c2.77-2.76,7.42-4.2,9.55,0.08
			c1.99,4.01,4.2,8.1,7.76,10.8c1.83,1.39,3.96,2.36,6.16,3.01c0.79,0.23,1.75,0.58,1.88,1.4c0.38,2.36-6.47,4.14-8.04,4.65
			c-3.28,1.05-6.66,1.95-9.58,3.83c-4.34,2.79-7.1,7.88-7.06,13.04C910.83,368.83,912.14,372.35,910.67,374.94z"/>
		<path class="st5" d="M899.14,309.88c-0.24,0.28,5.49,4.04,6.04,4.38c2.12,1.33,4.27,2.64,6.19,4.26c0.41,0.34,3.25,2.87,2.51,3.41
			c-2.35,1.72-5.13,1.87-7.35,3.72c-1.31,1.09-2.41,2.6-3.15,4.09c-0.53,1.07-1.33,1.99-2.2,2.8c-0.62,0.58-1.65,1.77-2.61,1.5
			c-0.52-0.14-0.9-0.59-1.11-1.09c-0.2-0.5-0.25-1.04-0.28-1.58c-0.25-3.68-0.36-7.47-0.24-11.19
			C897.05,316.75,896.75,312.62,899.14,309.88z"/>
		<path class="st5" d="M923.19,267.11c0.05,0.02,0.09,0.04,0.13,0.07c0.35,0.18,0.65,0.45,0.92,0.74c1.55,1.65,2.19,3.92,3.07,6
			c3.44,8.13,11.1,13.56,19.31,16.19c4.23,1.35,2.18,4.29-1.13,5.26c-1.77,0.52-3.65,0.46-5.48,0.63
			c-4.95,0.45-9.44,2.71-13.12,5.99c-1.88,1.67-3.53,3.56-5.06,5.56c-1.36,1.78-2.44,4.48-4.84,5.03c-1.17,0.27-2.4-0.08-3.53-0.5
			c-5.64-2.14-10.41-5.98-12.01-11.95c-1.61-6.04-0.22-12.49,1.28-18.4c0.49-1.94,1.01-3.9,1.98-5.66c1.79-3.25,4.91-5.42,8.22-6.93
			C915.65,267.89,920.22,265.76,923.19,267.11z"/>
		<path class="st5" d="M912.19,248.76c0.56-0.42,4.42,2.58,4.89,2.92c1.77,1.28,3.43,2.7,4.98,4.24c1.03,1.02,3.32,3.13,0.89,3.7
			c-1.37,0.32-2.81,0.34-4.21,0.47c-1.88,0.18-3.86,0.58-5.25,1.86c-1.12,1.03-3.32,2.14-4.36,0.35c-1.03-1.76-0.52-5.06-0.26-6.98
			C909.2,252.81,910.1,250.32,912.19,248.76z"/>
		<path class="st6" d="M1004.44,213.78c1.71-0.3,3.42-0.48,5.1-0.52c4.94-0.11,9.8,0.87,14.67,1.52c1.61,0.22,3.24,0.38,4.87,0.46
			c1.35,0.07,6-0.04,6.87,1.37c0.4,0.64,0.46,1.42,0.55,2.17c0.59,5.41-0.54,10.86,1.62,16.06c1.12,2.7,2.95,4.41,4.92,6.45
			c1.7,1.76,3.98,4.97,1.85,7.22c-4.19,4.42-10.82,5.41-12.71,11.91c-0.2,0.68-0.34,1.38-0.66,2.01c-0.84,1.61-2.5,1.33-4.05,1.27
			c-10.77-0.46-21.11-0.75-31.27-4.83c-1.64-0.66-3.27-1.4-4.72-2.42c-10.78-7.65-13.2-27.12-2.49-35.83
			C993.26,217.13,998.84,214.77,1004.44,213.78z"/>
		<path class="st5" d="M994.83,190.46c-0.14-0.35-0.27-0.71-0.39-1.07c-4.45-13.32,10.56-19.15,20.96-21
			c4.27-0.76,8.61-0.99,12.94-1.02c3.51-0.03,9.26-1.66,11.4,2.18c0.66,1.18,0.9,2.53,1.2,3.84c1.01,4.46,2.75,8.76,5.1,12.68
			c1.2,2,2.54,4.05,4.14,5.77c1.19,1.28,3.45,2.66,2.95,4.72c-0.23,0.93-1.09,1.54-1.89,2.06c-5.52,3.61-11.66,9.91-18.66,9.91
			c-2.8,0.02-5.55-0.57-8.31-1.04C1012.55,205.47,999.8,202.9,994.83,190.46z"/>
		<path class="st7" d="M977.74,336.16c0.12-0.06,0.23-0.12,0.35-0.17c4.72-2.29,9.61-2.42,14.7-3.12
			c5.79-0.81,11.47,0.13,17.25-0.78c1.07-0.17,2.3-0.29,3.09,0.45c1.5,1.41,0.73,3.5,0.63,5.27c-0.18,3.06-0.39,6.16,0.48,9.14
			c0.94,3.23,3.04,5.91,5.39,8.25c2.01,2,5.71,3.55,5.13,6.75c-0.71,3.92-5.2,5.01-8.01,7.01c-2.61,1.85-4.39,4.66-7.08,6.4
			c-2.93,1.9-6.59,1.77-9.93,1.34c-8.41-1.07-16.78-3.89-23.91-8.51c-3.79-2.45-7.52-5.6-9.55-9.72c-2.16-4.39-1.4-8.89,1.14-12.97
			C969.9,341.5,973.55,338.27,977.74,336.16z"/>
		<path class="st7" d="M948.12,343.07c-0.66-0.18-1.31-0.37-1.93-0.58c-9.7-3.28-21.26-7.83-22.82-19.4
			c-1.81-13.4,9.23-19.4,20.74-21.66c6.55-1.29,13.2-1.93,19.84-2.56c2.41-0.23,3.8,8.83,4.23,10.43
			c1.51,5.7,7.23,10.07,12.13,12.97c0.9,0.53,1.85,1.05,2.51,1.85c1.45,1.76,0.36,3.39-1.11,4.63c-1.56,1.31-3.86,1.21-5.7,1.86
			c-2.04,0.72-3.82,2.04-5.43,3.47c-1.82,1.62-3.52,3.34-5.42,4.88c-1.87,1.51-3.8,2.97-5.91,4.13c-1.59,0.87-3.63,1.01-5.42,0.94
			C951.9,343.95,949.99,343.57,948.12,343.07z"/>
		<path class="st5" d="M1010.49,325.72c-6.16,0.82-10.53-1.41-15.93-3.71c-6.43-2.74-12.39-4.49-17.07-10.2
			c-4.39-5.34-6.08-11.67-2.97-18.09c1.38-2.85,3.39-5.34,5.56-7.64c4.44-4.72,9.67-8.81,15.68-11.22
			c5.66-2.28,11.78-2.98,17.82-3.46c3.73-0.3,12.65-2.34,15.12,1.74c0.3,0.5,0.45,1.08,0.57,1.66c0.88,4.17,0.8,8.48,1.34,12.71
			c0.33,2.61,0.93,5.25,2.09,7.63c0.59,1.21,1.33,2.41,2.26,3.39c0.74,0.78,1.85,1.28,2.01,2.48c0.36,2.71-3.13,5.14-5.1,6.25
			c-3.86,2.18-6.87,3.77-9.35,7.57c-2.13,3.26-3.84,7.1-7.22,9.29C1013.94,324.97,1012.26,325.48,1010.49,325.72z"/>
		<path class="st6" d="M989.06,264.02c1.02,0.32,2.06,0.54,3.13,0.65c1.35,0.14,2.96,0.25,3.65,1.42
			c-9.16,6.84-21.41,10.82-27.41,21.21c-0.58,1-1.21,2.16-2.33,2.45c-0.6,0.15-1.23,0.03-1.83-0.11c-4.15-0.95-8.19-2.38-11.99-4.29
			c-6.47-3.25-12.26-7.87-16.81-13.51c-1.69-2.1-3.27-4.45-3.63-7.13c-0.65-4.75,2.63-9.12,6.13-12.4
			c5.75-5.39,12.64-9.55,20.09-12.12c3.13-1.08,6.42-1.89,9.72-1.66c1.35,0.1,2.75,0.39,3.81,1.22c1.8,1.41,2.21,3.9,2.71,6.13
			c1.01,4.51,2.92,8.87,5.98,12.34C982.63,260.88,985.68,262.97,989.06,264.02z"/>
		<path class="st6" d="M927.78,358.51c1.21-0.86,2.4-1.59,3.46-2.17c3.72-2.05,7.79-3.46,11.98-4.15c3.3-0.54,8.43-1.38,11.37,0.63
			c0.8,0.54,1.43,1.3,2,2.07c3.85,5.21,5.54,12.02,10.51,16.4c0.72,0.64,1.54,1.28,1.78,2.21c0.79,2.99-3.76,7.09-5.66,8.91
			c-1.47,1.41-3,2.74-4.51,4.1c-1.41,1.28-2.52,3-4.28,3.85c-1.51,0.73-3.27,0.66-4.92,0.39c-5.92-0.97-11.8-1.84-17.24-4.56
			c-5.33-2.66-10.03-7-12.16-12.66C917.73,367.24,923.02,361.89,927.78,358.51z"/>
		<path class="st6" d="M1026.84,121.95c2.38-1.66,4.85-3.19,7.38-4.6c2.23-1.24,4.49-2.4,6.84-3.4c0.99-0.42,7.05-3.3,7.86-2.6
			c3.16,2.71,2.66,6.81,2.67,10.54c0.01,5.34,1.99,10.05,5.51,14c1.12,1.26,2.31,2.47,3.25,3.87c0.87,1.31,2.21,4.12,1.19,5.61
			c-0.26,0.38-0.65,0.64-1.03,0.9c-6.92,4.59-16.58,11.36-25.31,8.49c-7.28-2.39-16.96-5.86-19.93-13.71
			c-2.23-5.88,1.39-10.96,5.73-14.64C1022.87,124.84,1024.82,123.35,1026.84,121.95z"/>
		<path class="st7" d="M979.77,157.28c0.51-0.87,1.27-1.75,2.33-2.62c3.07-2.5,6.28-4.86,9.4-7.31c4.29-3.38,8.69-6.95,13.55-9.49
			c1.17-0.61,2.68-1.73,4.07-1.16c2.56,1.05,1.84,5.35,2.52,7.45c1.17,3.66,6.56,7.68,8.92,10.58c0.92,1.13,3,5.18-0.62,5.69
			c-5.8,0.81-11.49,2.34-16.9,4.58c-5.09,2.11-9.85,6.63-15.57,4.25C982.12,167.04,976.93,162.19,979.77,157.28z"/>
		<path class="st5" d="M963.67,173.13c1.46-2.62,3.8-4.71,6.96-4.45c1.49,0.12,2.88,0.87,4.01,1.84c1.49,1.28,2.74,2.83,3.81,4.47
			c1.7,2.61-2.37,2.56-3.86,2.76c-2.24,0.3-4.47,0.68-6.68,1.13c-1.73,0.35-3.75,1.38-5.48,0.41c-0.54-0.31-0.51-0.86-0.42-1.42
			C962.27,176.36,962.82,174.66,963.67,173.13z"/>
		<path class="st7" d="M953.78,190.79c1.65-0.7,3.39-1.25,5.17-1.8c4.99-1.54,10.06-2.81,15.18-3.81c2.58-0.5,5.12-1.43,7.78-1.37
			c4.07,0.08,5.24,5.24,6.79,8.19c1.28,2.43,2.62,4.83,4.02,7.19c0.78,1.31,4.1,5.2,3.04,6.4c-0.42,0.49-1.35,0.85-1.9,1.21
			c-1.26,0.82-2.49,1.67-3.7,2.55c-3.13,2.27-6.1,4.75-8.91,7.4c-1.98,1.87-5.22,6.95-8.42,6.21c-2.04-0.48-3.95-1.42-5.91-2.12
			c-2.27-0.81-4.53-1.71-6.69-2.78c-4.51-2.25-8.66-5.22-12.24-8.78c-2.24-2.23-3.88-4.8-3.39-8.11c0.33-2.23,1.56-4.23,2.99-5.97
			C949.32,193.1,951.45,191.79,953.78,190.79z"/>
		<path class="st5" d="M934.95,203.87c2-0.84,4.92,3.85,5.7,5.18c2.27,3.92,4.24,7.46,7.82,10.37c3.54,2.88,7.69,4.89,11.92,6.56
			c0.61,0.24,6.76,2.87,6.85,2.76c-6.79,8.15-19.51,6.88-27.85,12.74c-2.64,1.85-4.78,4.29-6.81,6.77
			c-1.83,2.24-4.12,2.69-6.83,1.52c-2.33-1.01-3.87-3.07-4.8-5.37c-1.97-4.88-1.75-10.9-0.46-15.93c0.08-0.3,0.16-0.6,0.25-0.89
			c1.91-6.31,5.58-11.93,9.34-17.35c1.23-1.77,2.47-3.52,3.73-5.26C934.11,204.53,934.45,204.08,934.95,203.87z"/>
		<path class="st5" d="M922.97,394.95c-0.3-1.27,0.05-2.61,1.49-4.02c8.43,4.57,17.66,6.17,26.52,9.19
			c4.59,6.53,6.93,14.18,11.91,20.71c0.65,1.77-1.38,5.07-2.97,5.89c-2.25,1.15-7.84-1.97-9.96-3c-4.12-2.01-7.49-5.33-10.38-8.83
			c-3.59-4.33-6.67-9.11-10.69-13.06C926.78,399.77,923.57,397.5,922.97,394.95z"/>
		<path class="st7" d="M1623.64,275.72c0-0.01,0-0.03,0.01-0.04c0.06-0.28,0.31-0.47,0.54-0.64c1.89-1.35,3.69-2.73,5.42-4.28
			c2.21-1.99,4.3-4.13,6.23-6.4c0.59-0.7,1.14-1.33,2.06-1.47c0.95-0.15,1.97-0.1,2.92,0c1.84,0.19,3.62,0.75,5.28,1.56
			c4.94,2.39,9.55,6.14,11.35,11.48c0.33,0.98,0.57,2,0.51,3.03c-0.05,0.89-0.34,1.93-0.99,2.57c-0.56,0.55-1.19,0.36-1.93,0.43
			c-0.67,0.06-1.35,0.12-2.02,0.18c-1.3,0.1-2.59,0.19-3.89,0.27c-2.58,0.16-5.17,0.28-7.75,0.42c-2.56,0.14-5.12,0.31-7.68,0.56
			c-1.27,0.12-2.54,0.27-3.8,0.44c-1.1,0.15-2.56,0.7-3.64,0.61c-1.13-0.09-1.88-1.62-2.06-2.6c-0.34-1.85-0.1-3.77-0.5-5.64
			C1623.65,276.04,1623.61,275.88,1623.64,275.72z"/>
		<path class="st5" d="M1520.84,256.78c-0.86-0.46-1.67-0.96-2.01-1.92c-0.23-0.65-0.26-1.35-0.31-2.03
			c-0.35-4.34-2.08-8.27-3.4-12.36c-1.15-3.55-1.99-7.76,1.07-10.61c1.7-1.58,3.38-2.24,5.7-2.37c4.42-0.25,8.93-0.01,13.14,1.37
			c4.66,1.52,10.72,5.21,11.55,10.5c0.81,5.18-3.51,9.45-6.94,12.69c-4.18,3.96-10.18,6.21-15.94,5.41
			c-0.84-0.12-1.87-0.22-2.65-0.58C1520.98,256.85,1520.91,256.81,1520.84,256.78z"/>
		<path class="st7" d="M1523.22,290.56c-1.45,0.79-3.01,1.36-4.75,1.6c-4.62,0.63-9.3,1.15-13.89,1.99
			c-1.94,0.36-4.14,1.56-5.22-0.91c-0.39-0.89-0.37-1.91-0.18-2.86c0.35-1.75,1.09-3.4,1.62-5.1c1.45-4.67,2.07-9.6,4.02-14.11
			c0.85-1.97,1.98-3.83,3.5-5.36c1.8-1.82,3.73-3.05,6.23-3.59c6.28-1.35,12.18,0.86,17.34,4.34c2.22,1.5,5.12,3.55,5.66,6.35
			c0.71,3.67-2.23,7.26-4.63,9.71c-1.69,1.74-3.58,3.32-5.43,4.89C1526.15,288.67,1524.74,289.74,1523.22,290.56z"/>
		<path class="st5" d="M1538.99,287.99c0.36-0.59,0.98-1.03,1.63-1.31c6.27-2.66,13.06-0.72,19.59-1.44
			c1.98-0.22,3.96-0.68,5.78-1.5c0.91-0.41,1.77-0.9,2.58-1.48c0.7-0.51,1.35-1.32,2.27-1.36c0.56-0.02,1.09,0.26,1.56,0.57
			c2.44,1.63,2.62,4.23,0.23,5.96c-1.19,0.86-2.37,2.05-3.65,2.73c-0.9,0.48-2.01,0.47-2.99,0.61c-1.98,0.3-3.98,0.48-5.98,0.65
			c-3.19,0.27-6.39,0.51-9.59,0.74c-2.5,0.18-5,0.32-7.48,0.69c-1.32,0.2-2.37,0.14-3.25-0.96c-0.66-0.83-1.2-2.08-0.99-3.16
			C1538.74,288.46,1538.84,288.22,1538.99,287.99z"/>
		<path class="st6" d="M1564.73,277.82c-1.12,0.49-2.11,0.73-3.52,0.74c-4.54,0.03-9.18,1.53-13.68,0.3c-1.31-0.36-2.54-1-3.46-2.02
			c-1.55-1.71-1.71-4.05-2.14-6.2c-0.6-3.03-2.18-5.83-2.37-8.95c-0.07-1.14,0.84-1.66,1.59-2.39c0.88-0.87,1.75-1.76,2.6-2.66
			c2.28-2.43,4.21-5.27,6.83-7.36c2.9-2.32,6.37-2.25,9.87-1.5c3.59,0.77,7.04,2.24,10.06,4.34c1.52,1.06,2.93,2.28,4.19,3.64
			c1.25,1.35,2.46,2.32,2.9,4.2c0.39,1.64,0.21,3.41-0.37,4.98c-1.33,3.61-3.75,6.76-6.69,9.22c-1.49,1.25-3.13,2.33-4.87,3.22
			C1565.35,277.54,1565.04,277.69,1564.73,277.82z"/>
		<path class="st6" d="M1553.89,240.25c-0.07-0.05-0.14-0.1-0.21-0.16c-0.35-0.32-0.6-0.73-0.83-1.14
			c-1.73-3.23-1.8-6.98-1.78-10.56c0,0.02,4.22-1.89,4.61-2.16c3.99-2.64,6.52-6.84,9.93-10.1c4.33-4.15,9.62-4.08,14.89-1.94
			c5.21,2.11,10.95,3.55,15.33,7.27c0.26,0.22,0.51,0.45,0.76,0.68c0.65,0.62,1.25,1.3,1.71,2.07c1.9,3.26,1.35,7.63-0.39,10.82
			c-0.9,1.66-2.12,3.13-3.47,4.43c-0.98,0.94-1.92,2.03-3.06,2.79c-1.32,0.88-3,1.18-4.54,1.43c-5.12,0.84-10.24,0.79-15.39,0.25
			c-3.09-0.36-6.16-0.91-9.21-1.57c-1.54-0.33-3.08-0.7-4.61-1.07C1556.59,241.03,1554.85,240.91,1553.89,240.25z"/>
		<path class="st5" d="M1581.14,275.62c0.6,0,1.22,0.42,1.8,0.57c0.73,0.2,1.48,0.37,2.22,0.53c1.49,0.32,2.99,0.57,4.5,0.75
			c6.87,0.83,13.83-0.04,20.73-0.04c1.32,0,2.64,0.02,3.96,0.06c0.38,0.01,0.77,0.02,1.14,0.12c2.37,0.6,4.25,3.89,3.88,6.2
			c-0.03,0.16-0.06,0.34-0.17,0.46c-0.32,0.39-1.8,0.16-2.27,0.19c-0.9,0.05-1.79,0.14-2.68,0.24c-1.77,0.21-3.53,0.53-5.28,0.88
			c-3.47,0.7-6.9,1.57-10.39,2.15c-4.45,0.75-9.27,0.83-13.34-1.39c-2.23-1.22-4.14-3.06-5.36-5.3c-0.62-1.14-0.99-2.17-0.73-3.48
			C1579.35,276.53,1579.99,275.62,1581.14,275.62z"/>
		<path class="st7" d="M1594.28,274.57c-1.8-0.34-3.58-0.81-5.34-1.33c-1.7-0.5-4.65-0.87-4.97-3.06c-0.09-0.6,0.09-1.21,0.23-1.8
			c0.66-2.69,0.76-5.59,0.04-8.29c-0.36-1.36-0.93-2.66-1.75-3.8c-0.72-1-2.27-1.88-2.22-3.24c0.03-0.71,0.39-1.37,0.86-1.91
			c1.27-1.46,3.29-0.94,5.03-1.06c2.71-0.19,5.31-1.21,7.66-2.58c3.07-1.8,5.97-4.11,8.49-6.62c3.27-3.25,8.06-6.02,12.36-2.94
			c3.18,2.27,6.22,4.77,8.92,7.61c2.38,2.51,4.53,5.03,4.62,8.67c0.08,2.98-1.19,7.11-3.58,9.06c-1.27,1.04-2.81,1.67-4.16,2.59
			c-2.2,1.5-4.39,3.03-6.68,4.39c-5.54,3.29-11.18,5.43-17.71,4.59C1595.47,274.78,1594.87,274.68,1594.28,274.57z"/>
		<path class="st7" d="M1639.56,258.1c-0.3-0.1-0.56-0.25-0.79-0.45c-0.49-0.43-0.82-1.01-1.15-1.57c-1.94-3.4-3.62-7.07-5.49-10.56
			c-1.89-3.51-3.88-7.13-7.24-9.42c-0.23-0.16,6.21-5.36,6.82-5.76c2.84-1.87,5.59-3.58,7.91-6.12c0.55-0.6,1.08-1.24,1.8-1.63
			c1.61-0.87,4.49,0.51,6.06,1.09c2.24,0.83,4.4,1.93,6.31,3.38c3.7,2.8,6.35,6.71,6.9,11.32c0.92,7.63-2.4,14.71-9.65,17.76
			c-2.03,0.86-4.19,1.37-6.37,1.69C1643.31,258.03,1641.06,258.62,1639.56,258.1z"/>
		<path class="st7" d="M1630.41,220.09c-0.57,0.72-1.25,1.37-1.96,1.94c-2.7,2.19-6,3.51-9.35,4.43c-2.17,0.59-4.38,1.02-6.59,1.43
			c-1.57,0.29-3.04,0.52-4.45-0.39c-0.85-0.55-1.54-1.32-2.22-2.06c-2.45-2.68-5.05-5.23-7.78-7.64c-0.96-0.85-2.73-1.76-3-3.12
			c-0.26-1.27,0.73-2.32,1.8-2.83c1.78-0.85,3.81-0.98,5.62-1.75c1.87-0.8,3.71-1.78,5.34-3.01c1.73-1.3,3.25-2.92,4.38-4.77
			c1.14-1.86,1.3-4.18,2.53-5.92c0.72-1.01,1.92-1.79,3.15-1.63c1.36,0.17,2.65,1.34,3.75,2.11c1.27,0.89,2.52,1.83,3.69,2.85
			c2.2,1.94,4.21,4.24,5.21,7.04c1.08,3.01,2.31,7.4,1.37,10.56C1631.59,218.34,1631.07,219.27,1630.41,220.09z"/>
		<path class="st5" d="M1583.8,206.85c-1.55,0.29-3.8-0.25-5.39-0.36c-1.83-0.12-3.69-0.27-5.46-0.77c-4.19-1.17-5.95-3.8-6.73-7.88
			c-0.78-4.1-3.66-7.34-6.54-10.18c-1.3-1.28-2.02-2.03-1.92-3.96c0.06-1.18,0.46-2.26,1.16-3.2c1.49-2.01,3.97-3.14,6.15-4.21
			c1.2-0.59,2.42-1.16,3.58-1.83c0.99-0.57,1.88-1.59,2.86-2.08c6.28-3.16,12.08-5.27,18.63-1.63c4.04,2.24,7.82,4.98,11.1,8.25
			c1.66,1.66,3.21,3.45,4.54,5.39c1.53,2.24,3.23,4.06,2.46,7c-0.48,1.83-1.67,3.39-2.96,4.78
			C1599.61,202.24,1591.83,205.37,1583.8,206.85z"/>
		<path class="st6" d="M1558.42,210.17c-0.89,2.02-2.19,3.88-3.75,5.47c-3.96,4.03-8.27,6.42-13.94,6.54
			c-2.67,0.06-6.45,0.92-8.58-1.2c-1.63-1.62-0.54-3.68-0.48-5.7c0.07-2.49-0.38-4.99-1.18-7.35c-1.28-3.73-3.43-7.2-5.83-10.3
			c-1.42-1.83-3.68-3.6-4.09-5.97c-0.24-1.38,0.09-2.86,0.88-4.02c2.06-3,6.2-3.24,8.92-5.38c0.42-0.33,0.83-0.7,1.32-0.94
			c3.94-1.9,9.33,0.59,12.81,2.54c3.73,2.09,7.89,4.42,10.73,7.69c2.72,3.13,4.11,7.29,4.46,11.37
			C1559.91,205.44,1559.42,207.91,1558.42,210.17z"/>
		<path class="st5" d="M1518.01,182.51c-0.97,0.47-1.99,0.82-3.09,1.02c-3.56,0.66-7.2,0.78-10.81,0.62
			c-1.85-0.08-3.69-0.24-5.54-0.44c-1.24-0.13-4.12,0.24-4.95-0.77c-0.29-0.35-0.42-0.81-0.56-1.25c-1.97-6.37-6.35-11.7-9.1-17.78
			c0.15,0.33,4.92-1.65,5.39-1.86c1.95-0.85,3.83-1.84,5.63-2.98c4.77-3.01,8.98-6.97,12.01-11.74c0.17-0.27,2.82,0.4,3.16,0.48
			c1.1,0.24,2.19,0.57,3.25,0.95c5.74,2.1,10.81,6.14,14.63,10.86c0.98,1.21,1.91,2.52,2.36,4.02c0.91,3.06-0.26,6.42-1.87,9.03
			c-1.36,2.21-3.18,4.1-5.08,5.86C1521.77,180.11,1520.01,181.55,1518.01,182.51z"/>
		<path class="st7" d="M1490.12,197.66c3.05-10.74,18.38-8.42,24.13-1.9c5.8,6.11,13.08,12.64,9.24,22.31
			c-9.24,12.28-25.71,10.74-38.79,8.78c-1.87-0.28-3.2-1.87-3.46-3.69c-0.12-0.86-0.1-1.74-0.22-2.61
			c-0.34-2.42-1.85-3.95-3.51-5.59c-0.95-0.94-1.47-2.28-1.65-3.59c-0.03-0.19-0.05-0.37-0.06-0.56c-0.06-0.98,0.23-1.92,0.81-2.71
			c0.62-0.85,1.49-1.5,2.37-2.06c1.04-0.66,2.15-1.22,3.25-1.78c1.16-0.59,2.33-1.19,3.44-1.87c1.07-0.66,2.09-1.42,2.94-2.35
			C1489.26,199.34,1489.78,198.54,1490.12,197.66z"/>
		<path class="st5" d="M1481.26,235.33c0.39-0.39,1.6-0.13,2.08-0.12c1,0.01,2,0.01,3,0.01c2-0.01,4-0.04,6,0.03
			c3.42,0.12,6.87,0.53,10.07,1.73c3.81,1.42,7.85,4.3,9.16,8.32c0.35,1.06,0.46,2.19,0.46,3.3c-0.01,7.28-4.78,13.47-11.59,15.58
			c-9.9,3.07-20.68,2.28-30.9,2.27c-2.34,0-4.2-1.48-5.66-3.16c-1.19-1.37-1.85-3.06-2.41-4.76c-0.6-1.8-1.21-3.45-2.16-5.11
			c-0.27-0.47-0.53-0.98-0.17-1.49c0.22-0.31,0.55-0.54,0.9-0.7c8.85-3.91,13.91-6.9,20.02-14.71
			C1480.39,236.07,1480.86,235.73,1481.26,235.33z"/>
		<path class="st6" d="M1478.96,272.33c2.52-0.13,5.03-0.39,7.54-0.67c2.65-0.3,6.15-0.75,8.28,1.25c3.55,3.34,3.86,8.08,1.29,12.11
			c-4.97,7.81-14.18,11.16-22.64,13.6c-0.73,0.21-1.46,0.41-2.18,0.62c-3.37,0.94-6.66,2.17-10.07,2.97
			c-1.7,0.4-6.54,1.31-7.11-1.31c-0.11-0.51,0.19-1.01,0.45-1.47c2.17-3.77,2.29-8.66,0.85-12.71c-0.41-1.15-1-2.25-1.84-3.14
			c-1.24-1.32-3.25-1.92-3.4-4c-0.18-2.5,2.05-4.97,3.92-6.36c2.76-2.05,6.33-2.35,9.65-2.06c3.93,0.35,7.75,1.22,11.71,1.25
			C1476.6,272.42,1477.78,272.39,1478.96,272.33z"/>
		<path class="st5" d="M1685.84,276.79c-0.14,0.44-1.78,0.8-2.19,0.94c-0.86,0.29-1.73,0.54-2.61,0.75c-1.84,0.45-3.7,0.75-5.58,1
			c-2.25,0.3-4.5,0.6-6.75,0.9c-1.18,0.16-2.36,0.33-3.54,0.5c-0.71,0.11-0.79,0.13-0.94-0.69c-0.21-1.09-0.42-2.18-0.66-3.26
			c-1.07-4.8-2.8-9.53-6.52-12.92c-0.1-0.09-0.2-0.19-0.23-0.32c-0.03-0.14,0.04-0.28,0.11-0.41c1.5-2.64,3.94-4.44,6.28-6.28
			c1.51-1.19,3.01-2.46,4.17-4.01c1.33-1.79,1.68-3.51,1.68-5.71c6.88,6.23,11.45,14.52,14.68,23.13c0.05,0.13,0.1,0.26,0.15,0.39
			c0.67,1.81,1.3,3.64,1.9,5.48C1685.84,276.45,1685.89,276.62,1685.84,276.79z"/>
		<path class="st5" d="M1667.89,232.71c0.01,0.01,0.02,0.01,0.03,0.02c0.11,0.1,0.17,0.24,0.22,0.37c0.26,0.68,0.43,1.39,0.55,2.11
			c0.11,0.62,0.23,1.24,0.35,1.86c0.01,0.04,0.02,0.08,0,0.12c-0.01,0.04-0.04,0.07-0.07,0.1c-0.41,0.41-1.29,1.3-1.9,0.78
			c-0.4-0.34-0.39-1.13-0.42-1.61c-0.06-0.74-0.11-1.52-0.47-2.19c-0.13-0.25-0.31-0.47-0.53-0.65c-0.13-0.11-0.36-0.11-0.39-0.31
			c-0.01-0.08,0.01-0.16,0.04-0.23c0.19-0.48,0.62-0.64,1.11-0.62c0.24,0.01,0.49,0.06,0.73,0.1
			C1667.35,232.6,1667.7,232.57,1667.89,232.71z"/>
		<path class="st5" d="M1644.05,183.06l6.99,13.47c4.55,10.8,10.73,20.77,14.18,31.86c-8.05,1.18-8.05-10.74-15.36-11.92
			c-6,0.56-9.92-3.74-12.08-8.9c-1.73-4.13-3.13-8.4-4.58-12.64c-0.09-0.27-0.19-0.55-0.14-0.83c0.06-0.34,0.31-0.61,0.55-0.86
			C1636.99,189.76,1640.27,186.14,1644.05,183.06z"/>
		<path class="st5" d="M1636.39,179.27c0.41,4.21-3.48,6.53-6.9,8c-6.15,0.47-17.26,3.86-18.39-6.11
			c-1.55-6.11-8.47-7.72-12.72-11.87c5.38-4.21,13.49-4.63,18.82-10.44C1625.66,162.42,1634.11,170.07,1636.39,179.27z"/>
		<path class="st7" d="M1612,150.24c0.79,1.19,1.27,2.66,1,4.06c-0.35,1.78-1.8,2.93-3.26,3.83c-7.29,4.52-16.31,5.01-24.59,3.69
			c-0.45-0.07-0.9-0.15-1.36-0.23c-0.6-4.4-3.58-7.64-6.34-10.89c-2.25-2.64-4.44-5.62-4.76-9.08c0.08,0.88,4.43,0.1,5.02-0.01
			c2.19-0.39,4.24-1.34,6.2-2.37c2.57-1.35,5.09-2.87,7.91-3.54c2.9-0.7,6.17-0.12,8.36,1.99
			C1601.4,138.86,1610.56,148.07,1612,150.24z"/>
		<path class="st5" d="M1546.84,111.25c0.71-0.85,1.51-1.62,2.38-2.3c0.9-0.7,1.91-1.31,3.03-1.44c2.74-0.33,5.82,2.13,8,3.54
			c2.6,1.68,5.08,3.55,7.47,5.51c2.57,2.1,5.05,4.29,7.52,6.51c2.4,2.16,5.13,4.23,7.29,6.63c-0.98,1.5-3.73,2.32-5.31,2.94
			c-5.33,2.09-11.14,2.87-16.84,2.55c-2.83-0.16-5.62-0.61-8.37-1.29c-1.83-0.45-4.58-1.25-4.98-3.42c-0.17-0.94,0.77-2.03,1.1-2.86
			c0.47-1.19,0.87-2.42,1.08-3.69c0.38-2.29,0.07-4.79-1.34-6.64c-0.82-1.07-2.28-2.16-2.26-3.64c0.01-0.76,0.45-1.45,0.92-2.05
			C1546.65,111.48,1546.74,111.36,1546.84,111.25z"/>
		<path class="st7" d="M1545.05,137.65c0.7-0.12,1.36,0.49,1.92,0.8c1.76,1,3.2,2.4,4.88,3.5c1.63,1.06,3.48,1.75,5.37,2.18
			c1.66,0.38,3.37,0.51,5.01,0.94c1.68,0.44,3.28,1.21,4.66,2.27c2.7,2.06,4,4.87,5.1,7.98c0.69,1.95,1.69,3.97,1.34,6.1
			c-0.24,1.46-1.1,2.76-2.16,3.78c-1.47,1.4-3.33,2.45-5.07,3.47c-4.9,2.88-10.47,4.55-16.1,5.22c-3.2,0.38-6.43,0.46-9.65,0.53
			c-0.53,0.01-1.08,0.02-1.57-0.19c-2.1-0.9-0.58-4.89-0.1-6.37c0.64-2.01,1.26-3.96,0.6-6.07c-0.51-1.61-1.63-2.93-2.73-4.21
			c-1.58-1.84-3.17-3.69-4.75-5.53c-0.73-0.85-3.27-2.71-2.43-4.02c0.28-0.44,0.77-0.7,1.23-0.93c4.05-2.08,8.45-3.75,11.9-6.82
			c0.72-0.64,1.56-2.15,2.35-2.56C1544.91,137.68,1544.98,137.66,1545.05,137.65z"/>
		<path class="st7" d="M1516.65,91.7c0.11-0.51,0.25-1.02,0.56-1.43c0.38-0.51,0.97-0.83,1.57-1.03c0.81-0.27,1.7-0.34,2.53-0.12
			c0.86,0.23,1.6,0.75,2.33,1.26c2.56,1.76,5.25,3.22,7.96,4.72c2.03,1.12,3.95,2.41,5.9,3.66c0.51,0.33,1.05,0.69,1.31,1.24
			c0.79,1.69-0.74,3.41-2.18,4.08c-2.88,1.33-6.09,1.12-9.12,0.51c-2.79-0.56-5.54-1.25-8.31-1.87c-2.09-0.47-3.51-1.3-3.75-3.62
			c-0.25-2.39,0.69-4.72,1.13-7.03C1516.61,91.94,1516.63,91.82,1516.65,91.7z"/>
		<path class="st6" d="M1517.4,109.66c2.99,1.81,6.13,2.66,9.53,3.38c2.84,0.6,5.72,1.21,8.28,2.58c2.18,1.17,3.95,2.94,4.85,5.27
			c0.9,2.33,1.46,5.47-0.43,7.37c-3.65,3.66-7.56,7.12-12.06,9.65c-2.79,1.57-5.83,2.75-8.98,3.34c-1.6,0.3-3.23,0.46-4.87,0.45
			c-2.44-0.02-3.99-1.37-5.5-3.17c-5.13-6.13-7.86-13.44-9.59-21.16c-0.04-0.18-0.08-0.37-0.03-0.55c0.08-0.29,0.37-0.46,0.64-0.61
			c2.76-1.57,4.87-3.94,7.37-5.85c1.89-1.44,4.25-2.62,6.69-2.38C1514.77,108.13,1516.1,108.88,1517.4,109.66z"/>
		<path class="st0" d="M1505.31,81.43c0.33,0.41,0.51,0.94,0.68,1.44c0.48,1.43,0.96,2.86,1.44,4.29c1.07,3.18,2.03,6.44,0.66,9.7
			c-0.92,2.2-2.71,3.91-4.57,5.41c-2.84,2.28-6.01,4.2-9.44,5.44c-1.71,0.62-3.49,1.07-5.31,1.28c-1.69,0.2-3.58-0.17-4.99,1
			c-1.16,0.97-1.68,2.7-1.62,4.16c0.13,2.99,2.22,5.3,4.4,7.1c2.2,1.81,4.7,3.34,6.51,5.57c1.83,2.26,2.93,5,3.72,7.77
			c0.82,2.85,1.26,5.81,0.43,8.72c-1.06,3.72-3.67,6.84-6.78,9.07c-1.14,0.82-2.37,1.53-3.64,2.12c-1.64,0.76-3.38,1.31-5.15,1.7
			c-1.96,0.43-3.97,0.67-5.98,0.53c-1.68-0.11-3.86-1.03-5.44-0.12c-0.53,0.31-0.91,0.82-1.24,1.33c-1.18,1.81,0.01,2.98,1.6,3.87
			c3.15,1.77,5.87,3.55,8.08,6.5c2.91,3.88,4.95,8.56,6.45,13.14c0.74,2.27,1.35,4.66,1.08,7.03c-0.34,2.96-2.03,5.4-4.37,7.16
			c-5.01,3.77-11,5.86-17.12,6.96c-1.36,0.24-2.7,0.55-3.99,1.07c-3.37,1.35-3.16,4.77-0.44,6.7c3.28,2.33,7.15,3.48,9.71,6.77
			c2.19,2.82,3.2,6.39,3.11,9.94c-0.06,2.36-0.65,4.74-1.92,6.73c-1.16,1.83-2.82,3.28-4.53,4.59c-4.76,3.65-10.24,6.16-16.35,5.97
			c-0.53-0.02-1.06-0.05-1.59-0.11c-1.51-0.16-3.03-0.24-4.55-0.19c-1.06,0.03-2.39,0.08-3.1,1c-1.15,1.5,0.48,2.85,1.64,3.57
			c2.54,1.59,5.25,3.03,7.41,5.14c1.78,1.74,3.11,4.03,3.42,6.52c0.21,1.73,0,3.59-0.5,5.26c-0.6,1.98-1.77,3.07-3.42,4.25
			c-3.7,2.65-7.94,4.4-12.17,6c-1.33,0.5-2.6,1.1-3.93,1.61c-0.98,0.43-2.09,0.95-2.41,1.98c-0.2,0.66-0.16,1.5,0.32,1.99
			c1.35,1.36,3.73,1.38,5.48,1.72c2.7,0.53,6.2,0.81,8.35,2.67c1.76,1.53,2.43,3.88,2.08,6.15c-0.91,6.05-6.07,10.82-10.96,13.99
			c-2.93,1.9-6.08,3.42-9.27,4.81c-3.15,1.38-5.39,2.01-8.77,2.45c-6.77,0.88-13.53,1.77-20.3,2.65c-3.12,0.41-6.24,0.82-9.36,1.22
			c16.93-49.18,30.76-99.79,47.26-148.98c5.38-21.48,11.94-42.25,18.03-63.37c3.09-13.05,7.3-26.04,12.69-38.8
			c0.18-0.44,12.4,4.65,13.53,5.13c4.45,1.9,8.86,3.91,13.33,5.79c2.14,0.9,4.3,1.77,6.47,2.58
			C1500.91,79.77,1505.23,81.33,1505.31,81.43z"/>
		<path d="M882.74,651.77c-29.93,0-54.28,24.35-54.28,54.28c0,12.63,4.34,24.26,11.6,33.49l0.04-0.05
			c-0.56,0.77-1.12,1.54-1.68,2.31c-2.59,3.54-5.13,7.13-7.11,11.12c-0.98,1.98-2.13,4.77-2.53,6.97c-0.26,1.44-0.36,2.97,0.48,4.28
			c0.31,0.48,0.77,0.8,1.23,1.11c3.54,2.4,7.07,4.8,10.59,7.22l7.51,5.12c1.23,0.84,2.46,1.69,3.69,2.54
			c0.2,0.14,0.41,0.28,0.64,0.32c0.31,0.05,0.61-0.08,0.89-0.22c1.5-0.75,2.84-1.79,4.05-3.02c3.43-3.5,6.59-8.74,8.78-13.21
			c0.89-1.81,1.74-3.65,2.57-5.49l-0.03,0.07c0,0,8.87,1.71,13.55,1.71c29.93,0,54.28-24.35,54.28-54.28
			S912.67,651.77,882.74,651.77z M840.22,756.55c-0.84,1.2-1.68,2.4-2.52,3.6c-0.52,0.74-1.08,1.51-1.89,1.95
			c-1.68,0.91-2.87-0.07-2.91-1.88c-0.03-1.25,1.26-3.63,1.69-4.34c2.28-3.78,3.65-5.66,6.23-9.27c2.94-4.12,5.85-8.54,9.7-11.96
			c0.36-0.32,0.75-0.64,1.2-0.83c0.97-0.42,2.21-0.01,2.35,1.1c0.06,0.51-0.1,1.02-0.29,1.51c-1.15,3.04-3.04,5.62-5.01,8.21
			C845.8,748.52,843.01,752.54,840.22,756.55z M848.27,765.65c-0.57,0.89-1.17,1.75-1.89,2.51c-1.1,1.15-2.52,1.59-3.98,0.81
			c-1.23-0.66-1.27-2.18-0.94-3.39c0.28-1.02,0.84-1.94,1.4-2.85c2.67-4.34,5.24-8.79,8.19-12.95c2.37-3.35,4.21-7.49,7.76-9.82
			c0.84-0.55,2.33-1.16,2.97-0.01c0.25,0.44,0.27,0.98,0.24,1.49c-0.26,3.87-3.17,7.22-5.17,10.39c-2.67,4.23-5.28,8.49-7.89,12.75
			C848.72,764.93,848.5,765.29,848.27,765.65z M857.78,770.89c-0.87,1.41-1.9,2.97-3.55,3.53c-0.77,0.26-1.72,0.14-2.24-0.55
			c-0.3-0.4-0.4-0.91-0.43-1.4c-0.15-2.46,1.05-5.17,2.13-7.33c1.17-2.34,2.63-4.52,4.05-6.71c2.76-4.26,5.01-8.83,7.85-13.04
			c0.4-0.6,0.83-1.2,1.43-1.6c0.67-0.45,1.53-0.51,2.18-0.14c0.31,0.17,0.57,0.44,0.75,0.8c0.41,0.83,0.3,1.83,0.07,2.74
			c-0.47,1.88-1.39,3.62-2.28,5.34C864.53,758.7,861.41,764.94,857.78,770.89z M882.74,755.33c-3.94,0-7.78-0.47-11.45-1.35
			c0.61-1.35,1.23-2.71,1.86-4.05c0.15-0.33,0.31-0.66,0.46-0.98c0.66-1.39,1.34-2.79,1.62-4.32c0.93-5.05-4.21-5.76-7.54-7.38
			c-2.49-1.21-4.86-2.72-7.06-4.48c-2.08-1.67-3.97-4.29-6.63-4.84c-1.58-0.32-3.23,0.18-4.62,1.06c-2.23,1.41-4.05,3.69-5.73,5.78
			c-0.51,0.63-0.49,0.62-0.49,0.62c-6.09-8.2-9.7-18.35-9.7-29.33c0-27.17,22.11-49.28,49.28-49.28c27.17,0,49.28,22.11,49.28,49.28
			S909.91,755.33,882.74,755.33z"/>
		<path class="st3" d="M1764.37,194.39c0,0.14,0.22,0.17,0.33,0.15c18.9-3.1,33.22-17.89,33.22-35.66
			c0-17.87-14.47-32.72-33.52-35.71L1764.37,194.39z"/>
		<path class="st3" d="M1748.91,123.39c-18.51,3.38-32.23,17.96-32.23,35.49c0,7.83,2.9,15.41,7.86,21.44
			c6.21,7.56,15.23,12.1,24.69,14.09c0.2,0.04,0.59,0,0.59-0.26l-0.7-70.18C1749.08,123.39,1748.91,123.39,1748.91,123.39z"/>
		<path class="st2" d="M1486.11,433.31c1.02-0.76,2.03-1.53,3.07-2.27c1.45-1.05,2.92-2.08,4.4-3.09c2.02-1.38,4.06-2.72,6.12-4.04
			c2.53-1.62,5.1-3.2,7.68-4.73c3-1.78,6.03-3.5,9.09-5.16c3.41-1.85,6.86-3.62,10.35-5.32c3.77-1.83,7.59-3.57,11.44-5.21
			c4.08-1.73,8.21-3.35,12.39-4.84c4.34-1.55,8.73-2.96,13.17-4.2c4.56-1.28,9.16-2.39,13.8-3.3c4.72-0.93,9.49-1.65,14.28-2.13
			c4.85-0.49,9.72-0.73,14.6-0.69c4.94,0.04,9.87,0.37,14.76,1.01c4.98,0.66,9.92,1.65,14.77,2.98c4.99,1.38,9.89,3.12,14.62,5.22
			c1.63,0.72,3.25,1.49,4.84,2.29c0,0,6.76,4.71,10.75,6.58s9.38,5.47,8.96,10.3c-0.42,4.83-3.37,7.14-10.98,9.26
			c-1.4,0.39-2.8,0.82-4.2,1.24c-2.02,0.6-4.04,1.18-6.08,1.72c-2.74,0.73-5.5,1.39-8.27,2c-3.58,0.78-7.19,1.47-10.81,2.09
			c-4.54,0.77-9.1,1.42-13.67,1.99c-5.61,0.69-11.24,1.24-16.88,1.69c-3.45,0.27-6.89,0.63-10.34,0.8
			c-2.93,0.14-5.83,0.03-8.76-0.12c-2.27-0.12-4.55-0.23-6.82-0.35c-3.01-0.15-6.03-0.3-9.04-0.45c-3.56-0.18-7.11-0.35-10.67-0.52
			c-3.9-0.19-7.8-0.38-11.7-0.56c-4.05-0.19-8.09-0.38-12.14-0.57c-3.99-0.18-7.99-0.36-11.98-0.54c-3.74-0.16-7.49-0.32-11.23-0.48
			c-3.3-0.13-6.59-0.26-9.89-0.38c-2.65-0.09-5.3-0.18-7.95-0.25c-1.8-0.05-3.61-0.09-5.41-0.08
			C1487.61,433.21,1486.87,433.22,1486.11,433.31z"/>
		<path d="M1590.7,437.63c0,0-22.2-14.18-20.11-45.47c0,0,42.37-15.08,81.97,6.2c0,0-3.82,23.59-7.97,32.8
			C1644.59,431.17,1627.15,444.36,1590.7,437.63z"/>
		<path class="st4" d="M1730.16,194.69c6.22,4.92,10.61,7.18,18.82,8.87c0,0,3.05,10.35-6.45,34.94c0,0-2.2-27.44-11.95-42.31
			C1730.09,195.42,1729.48,194.14,1730.16,194.69z"/>
		<path class="st4" d="M1782.23,198.12c-7.63,6.49-18.06,6.61-18.06,6.61c1.4,7.38-3.82,33.75-3.82,33.75
			S1780.32,210.97,1782.23,198.12"/>
		<path d="M1737.27,276.38c1.12-2.98,2.29-6.31,3.04-8.36c0.82-2.25,0.95-2.69,1.65-4.98c1.39-4.55,2.47-9.21,2.89-13.95
			c0.15-1.75,0.2-3.59-0.57-5.16c-0.77-1.57-2.61-2.75-4.28-2.22c-1.37,0.44-2.21,1.89-2.37,3.32c-0.22,1.96-0.05,8.88-0.26,10.42
			c-0.47,3.4-0.91,6.82-1.84,10.12c-1.66,5.9-3.78,11.68-6.14,17.34c-0.56,1.34-1.13,2.69-1.74,4.01c0.16-0.35,1.92-0.83,2.26-0.99
			c14.78-6.93,31.23-20.52,34.43-37.5c0.27-1.43,0.39-2.94-0.11-4.3c-0.39-1.05-1.32-2.03-2.44-1.95c-0.49,0.03-0.95,0.27-1.36,0.54
			c-2.72,1.8-3.94,5.1-5.14,8.14c-1.91,4.84-4.34,9.48-7.3,13.75c-1.52,2.19-3.18,4.29-4.97,6.28
			C1741.37,272.71,1739.42,275.17,1737.27,276.38z"/>
	</g>
</g>
<g id="Studenten_2_">
	<path class="st8" d="M1995.99,1041.23c0,0-2.56,4.35,0.98,8.84c3.55,4.49,11.67,9.57,22.6,16.36
		c10.93,6.79,26.06,13.77,27.87,14.66c1.81,0.88,14.86,9.43,24.29,5.64c9.44-3.79,11.45-9.39,19.77-17.5
		c8.33-8.1,33.87-33.9,63.95-47.03c0,0,12.94-6.36,13.72-6.74s6.24-3.78,9.76-0.65c3.52,3.12,6.4,9.3,16.64,9.96
		c0,0,4.71,0.47,10.12-2.44c5.41-2.92,13.33-7.48,16.79-8.97c3.47-1.49,47.83-24.3,68.08-30.89c20.26-6.59,50.37-24.51,63.99-35
		c13.62-10.49,59.59-46.21,59.59-46.21s42.7-35.49,58.45-56.85s35.08-50.63,50.73-80.11c15.65-29.49,34.03-72.87,39.97-106.58
		s3.06-44.87,5.94-51.63c2.88-6.76,9.31-11.59,9.31-11.59s31.84-21.89,39.16-27.38s79.7-64.84,106.93-95.11s51.86-59.62,63.6-75.62
		c11.75-16,10.63-13.27,15.78-23.05s7.93-11.21,14.14-10.59c0,0,3.39,0.49,7.08,2.73c0,0,0.73,0.67,1.78,0.05
		c1.05-0.63,8.73-7.02,10.73-7.84c1.99-0.81,3.34-0.55,4.61,0.42c1.28,0.96,6.95,5.37,14.92,5.81s18.58-0.95,22.67-0.41
		c4.1,0.54,12.07,1.33,17.17-4.73s8.9-13.72,8.9-13.72s10.23-19.4,15.06-25.25c4.83-5.85,5.11-6.41,11.57-12.53
		c6.46-6.12,13.49-15.3,16.78-33.27c3.29-17.97-2.83-48.92-2.83-48.92s-3.33-15.05-17.64-23.93s-22.07-10.02-45.41-14.24
		c-23.35-4.23-27.59-5.97-34.12-13.03s-7.7-12.53-25.33-25c-17.63-12.47-35.29-20.61-46.5-28.15
		c-11.21-7.54-30.07-20.65-41.77-34.52s-20.73-17.7-30.84-20.94c-10.11-3.23-44.44-10.65-57.76-13.39
		c-13.31-2.74-37.13-7.46-77.14-11.43c-40.01-3.96-68.97-21.92-68.97-21.92s-32.03-18.98-81.52-18.51
		c-18.41,0.17-36.86,0.64-55.18,2.51c-14.96,1.53-29.95,4-44.3,8.59c-3.87,1.24-7.72,2.54-11.53,3.96
		c-3.43,1.27-7.41,2.4-10.46,4.43c-2.8,1.88-5.44,4.01-8.02,6.18c-2.93,2.47-5.17,5.48-6.95,8.85c-0.99,1.88-1.81,4.59-3.71,5.78
		c-2.4,1.5-5.71-0.01-8-1c-3.22-1.4-6.9-5.3-10.2-6.49c-3.44-1.24-7.28-1-10.8-0.26c-5.02,1.06-10.37,4.28-15.44,5.07
		c-5.92,0.93-11.21,3.07-16.37,6.36c-7.7,4.91-5.95,10.88-9.07,16.71c-2.56,4.78-12.35,2.63-18.44,7.82
		c-6.09,5.19-17.88,6.42-19.23,19.56c-0.43,4.17-5.33,31.37-26,50.14s-37,26.04-37,26.04s-24.5,14.37-22.29,24.95
		c2.2,10.58,12.32,5.92,13.75,9.2s-1.25,5.33-1.25,5.33s-13.99,9.11-18.86,17.44c-4.88,8.32-8.14,9.61-14.14,26.68
		s-13.66,36.43-14.65,38.32c-1.48,2.82-5.47,18.69,6.7,18c3.44-0.19,4.83-1.67,6.32,2.67c1.17,3.41-9.07,4.58-12.13,6.74
		c-3.78,2.68-11.26,10.37-15.17,4.25c-4.32-6.74-20.96-34.4-25.58-37.16c-4.61-2.76-6.98-3.75-10.4-4.56
		c-3.42-0.81-9.98,3.39-8.19,16.91s19.48,59.11,19.48,59.11s2.98,6.41-1.23,12.65s-21.1,34.81-29.94,67.33s-11.34,53.35-13.66,65.49
		c0,0-5,23.22-5.97,26.71c-0.97,3.49-6.37,18.72,1.74,25.92c8.11,7.2,16.77,8.94,28.28,5.46s23.82-10.61,37.37-15.95l6.53-3.16
		c0,0,5.72-2.66,8.05-0.21c2.33,2.45,3.41,6.42,3.54,13.63c0.13,7.21-3.55,29.95-3.55,29.95s-0.75,4.84-0.88,15.64l0.2,55.24
		c0,0,4.84,21.61,8.72,33.66c3.89,12.05,6.23,21.65,4.21,26.9c-2.02,5.25-10.71,12.15-14.31,16.94
		c-3.59,4.79-15.68,21.28-11.68,37.66c4,16.38,18.43,15.25,31.84,16.94c13.41,1.69,60.14,3.05,60.14,3.05s37.82,0.92,66.8-8.6
		c0,0-13.65,22.04-15.76,28.46c-2.11,6.42-7.23,12.89-18.05,13.03c-10.82,0.13-84.43,7.47-139.53,23.88
		c-55.1,16.41-73.39,31.99-99.86,43.53c0,0-14.55,5.41-14.85,16.81c-0.3,11.4,3.89,27.19,7.91,36.85
		c4.02,9.66,9.75,22.52,12.69,28.3s11.38,16.12,28.32,10.06s84.88-33.47,84.88-33.47s47.77-19.55,49.89-19.37s3.14,3.25,1.66,4.63
		c-1.48,1.38-30.29,40.84-36.23,48.68c-5.94,7.85-35.02,43.96-42.55,51.16C1999.65,1037.2,1995.99,1041.23,1995.99,1041.23z"/>
	<path id="Ansikte_1_" class="st1" d="M2502.73,604.85c0,0-0.35,1.11-0.47,1.42s0.05,0.54-1.15,1.21
		c-1.2,0.66-43.71,25.5-59.63,39.32c-15.92,13.82-33.73,25.81-50.35,40.64c-16.62,14.83-39.27,32.13-102.91,50.19
		c-63.64,18.06-76.2,18.11-100.24,31.23c0,0-6.45,4-24,5.65c-17.55,1.65-70.68,3.27-85.85,1.38c-15.18-1.89-43.54-2.76-39.55-19.72
		c0,0,0.76-5.94,4.28-12.33c1.15-2.09,1.52-3.93,3.37-5.66c4.48-4.19,9.85-8.53,12.36-14.3c2.75-6.33,6.5-16.6,3.19-33.07
		s-10.59-31.45-10.67-39.97c0,0,34.83,0.85,62.03-17.2c8.37-5.55,22.52-14.06,29.68-31.41c0,0-2.49-0.76-2.72-0.47
		c-0.23,0.29-10.6,15.36-21.82,14.74s-24.28-11.91-24.28-11.91s-26.17-24.22-36.01-25.27c0,0-6.34-0.66-5.19-7.04
		c0,0,0.14-5.62,1.25-9.59c1.12-3.98,2.53-17.07,0.76-22.88c-1.77-5.81-6.39-13.23-21.06-8.91c-14.67,4.33-48.56,20.74-52.99,19.74
		c0,0-4.29,0.38-7.37-1.05s-5.27-3.85-5.91-9.36c-0.65-5.51,3.24-16.26,6.17-34.61c0,0,7.48-48.51,15.04-69.96
		c7.56-21.45,10.2-27.96,14.61-37.49c4.41-9.53,14.6-31.37,14.6-31.37s23.79-36.07,37.67-47.19c0,0,15.48-7.51,17.37-10.8
		s0.87-8.01-2.37-9.74c-3.24-1.73-8.51-0.96-8.51-0.96s-9.43,0.94-6.38-6.7c3.05-7.64,3.99-5.81,7.46-13.79
		c3.47-7.99,16.84-46.79,21.76-52.21c4.93-5.42,18.3-17.85,28.17-21.57c0,0,5.21-1.14,11.99,4.37c6.78,5.51,94.6,42.97,188.61,26.28
		c0,0,12.99-1.74,15.96-2.33s15.88-1.03,14.53,12.04c-1.35,13.07-27.6,210.66-26.83,220.06c0.77,9.4,9.04,12.83,10.51,13.06
		s2.76,0.36,5.6-2.44c2.84-2.79,9.02-8.32,14.63-9.68c5.6-1.35,6.25-2.07,13.75-1.12c7.5,0.96,14.07-0.72,17.27-7.98
		c3.2-7.26,4.86-23.51,7.23-34.98c2.38-11.46,8.85-40.76,13.48-47.54l12.25-24.7c0,0,4.42-20.91,30.58-31.09s47.47,4.34,47.47,4.34
		s17.32,8.12,23.7,16.3c6.38,8.18,3.65,20.34,1.82,26.68c-1.82,6.34-11.44,35.34-10.27,58.84c1.17,23.5-5.77,36.77-5.77,36.77
		s-3.85,8.8-7.65,13.87c-3.8,5.07-5.87,22.93-5.87,22.93s-2.79,20.59-7.1,36.27C2478.36,536.1,2465.94,585.9,2502.73,604.85z"/>
	<path class="st4" d="M2050.8,1077.63c0,0,11.87,8.26,22.58-0.18c0,0,4.56-3.2,10.42-10.43c5.86-7.23,31.77-31.74,56.14-43.32
		c24.37-11.57,30.9-12.1,30.29-23.72c-0.61-11.62-21.58-59.25-18.36-100.91c0,0,0.23-5.3,1.95-14.48
		c1.72-9.18,6.99-41.25,6.38-48.03c0,0,0.92-11.29-6.34-11.77c-7.26-0.47-25.87,4.12-36.03,5.74s-64.6,13.15-82.39,17.99
		c-17.79,4.84-44.86,12.51-73.25,23.23c-28.39,10.72-47.31,21.37-47.31,21.37s-11.71,5.28-5.2,22.09s12.19,36.81,18.09,49.64
		c0,0,3.55,8.74,13.82,6.13s37.4-12,48.29-16.19c10.89-4.2,81.5-31.75,81.5-31.75s20.76-7.82,31.11-9.42c0,0-1.82,4.01-5.45,8.58
		c-3.62,4.58-26.88,41.83-30.97,46.77c-8.65,10.43-23.7,32.7-45.88,54.11c-20.85,20.13-14.54,25.38-14.54,25.38
		s0.81,2.21,10.49,7.38S2050.8,1077.63,2050.8,1077.63z"/>
	<g>
		<path class="st4" d="M2111.12,620.64c0,0-24.65,22.52-52.1,21c-0.39-0.02-0.79,0.01-1.18-0.01c-0.98-0.05-1.95-0.17-2.91-0.38
			c-1.26-0.27-2.49-0.69-3.64-1.28c-1.29-0.67-2.45-1.58-3.37-2.72c-1.09-1.36-1.77-2.99-2.1-4.69c-0.13-0.67-0.21-1.35-0.24-2.04
			c-0.03-0.64-0.1-1.32,0-1.97c0.12-0.73,0.49-1.21,0.96-1.74c0.28-0.31,0.56-0.61,0.86-0.9c0.76-0.73,1.6-1.39,2.51-1.92
			c1.62-0.96,3.45-1.52,5.34-1.52C2061.28,622.45,2104.34,625.26,2111.12,620.64z"/>
		<path class="st4" d="M2109.86,620.12c0,0-23.42-10.33-31.99-19.7c0,0-10.72-12.53-18.99-12.9c-3.61-0.16-7.32,1.02-10.03,3.45
			c-2.41,2.16-3.49,5.13-2.96,8.33c0.56,3.36,1.95,7.08,3.72,10c1.66,2.74,4.1,4.81,7.22,5.66
			C2064.63,617.1,2094.27,623.7,2109.86,620.12z"/>
	</g>
	<path class="st2" d="M2206.34,1009.45c0,0-10.98,7.64-19-1.02c-8.02-8.66-18.3-33.84-21.28-57.32
		c-2.98-23.48-7.96-49.61,1.47-106.2c0,0,3.93-32.07,24.23-57.95c0,0,7.53-9.95,9.15-11.77s3.7-5.68,13.87-8.9
		c10.18-3.22,122.03-23.17,169.38-58.31c47.34-35.14,61.3-52.23,94.64-72.08c33.35-19.85,75.86-45.2,75.86-45.2
		s6.07,62.4-30.54,144.42s-71.91,118.25-71.91,118.25s-17.85,23.91-56.66,48.79c0,0-44.6,34.28-62.23,45.73
		c-17.63,11.45-21.42,14.9-46.84,25.19C2261.07,983.37,2229.53,997.8,2206.34,1009.45z"/>
	<path class="st9" d="M2797.89,354.42c0,0,5.35,7.36-1.01,13.14s-16.53,18.62-19.91,23.17c-3.37,4.55-7.56,7.26-12.43,4.93
		c-4.86-2.33-10.55-6.77-10.55-6.77l-68.5-48.81c0,0-95.32-66.27-145.01-91.66s-118.43-68.33-191.11-86.64
		c0,0-61.43-18.72-105.17-24.25c0,0-54.78-9.68-58.04-11c0,0,27.95-10.75,37.66-30.5c9.71-19.75,15.29-20.41,21.88-19.57
		c6.59,0.84,77.92,12.92,155.76,40.08s162.35,69.92,184.31,82.07c21.97,12.15,107.98,61.9,150.56,99.28
		C2778.9,335.27,2775.26,330.21,2797.89,354.42z"/>
	<path class="st9" d="M2177.92,86.03c0,0-0.35,7.31,6.23,6.84c6.58-0.47,9.23-4.18,9.23-4.18s1.22-4.7,2.61-7.43
		c1.39-2.73,1.95-5.81,0.13-6.75c-1.82-0.94-7.14-0.57-11.04,1.16c-3.89,1.73-6.53,3.7-6.83,6.55
		C2177.94,85.08,2177.92,86.03,2177.92,86.03z"/>
	<path class="st10" d="M2173.26,113.95c-0.07-0.16-2.12-3.11-0.19-8.28c0,0,1.77-4.86,7.73-7.06c5.96-2.2,17.24-5.87,20.44-14.31
		c0,0,1.48-3.69,1.76-6.85c0.28-3.16,0.39-7.43,4.62-7.93s9.67,1.2,10.75,7.44c1.08,6.24-1.13,13.07-5.57,19.45
		s-14.6,16.71-24.57,19.35C2178.26,118.41,2173.97,115.59,2173.26,113.95z"/>
	<g>
		<path class="st11" d="M2373.39,208.7c0,0,9.67-10.7,11.49-13.33c1.83-2.63,4.35-7.83,8.16-8.41s4.08-0.19,9.51,1.76
			c5.44,1.95,5.6,2.31,6.73,4.47c1.13,2.16-2.38,5.55-5.02,6.58c-2.64,1.03-8.14,6.11-15.3,7.53
			C2381.81,208.72,2376.57,209.22,2373.39,208.7z"/>
		<path class="st11" d="M2251.55,225.58c0,0,18.87-18.69,28.75-31.01c9.89-12.32,19.59-25.08,19.59-25.08s4.31-8.04,11.91-7.7
			c0,0,3.37,0.1,6.36,1.08c2.99,0.97,4.53,0.87,4.53,0.87s3.72-0.17,3.04,5.28c-0.68,5.46-2.8,15.11-16.79,29.24
			c-13.98,14.13-33.65,24.43-47.29,26.58L2251.55,225.58z"/>
		<path class="st11" d="M2106.72,188.2l35.46-26.18l15.7-11.4l11.8-8.34l5.63-3.88c0,0,3.6-3.44,10.57-1.19
			c6.97,2.25,10.44,8.35,10.62,9.23s1.52,3.65-4.77,7.04c-6.29,3.39-18.3,13.18-22.55,15.39c-4.25,2.21-19.66,14.51-20.32,15.07
			c-0.65,0.56-11.12,12.46-22.16,12.52C2115.68,196.52,2106.72,188.2,2106.72,188.2z"/>
	</g>
	<path class="st11" d="M2222.07,66.67c0,0-4.14,0.19-3.7-9.51c0,0-0.29-6.43,4.34-7.87c4.63-1.44,10.67-3.06,13.34-4.02
		s17.08-7.12,27.15-2.31c0,0,3.63,1.53,7.69,4.93c4.06,3.41,11.3,5.78,15.53,0.41c4.24-5.37,3.09-9.46,7.94-14.04
		c0,0,2.49-2.77,4.87-4.07c2.39-1.3,3.3-1.9,6.93-2.97s19.72-5.53,21.34-5.95c1.62-0.42,39.13-10.08,65.31-11.73
		s61.18-1.63,98.33,13.61c0,0,15.73,6.06,32.29,16.7c16.56,10.65,31.49,11.03,43.19,10.8c11.7-0.23,33.02,0.29,61.75,6.81
		s68.03,16.13,71.72,17.18s6.91,0.48,19.27,11.66s46.29,42.13,83.94,58.51c0,0,15.98,7.5,31.33,26.11
		c15.35,18.6,20.53,22.93,34.38,23.4c0,0,10.34-1.14,28.78,3.88c18.44,5.02,33.24,10.47,39.08,28.55
		c5.84,18.08,4.98,38.38,2.96,47.83s-8.77,19.32-17.16,26.89c-8.39,7.57-21.14,30.68-21.14,30.68s-11.72,23.3-35.07,22.26
		c0,0-7.67-0.14-16.29-4.31c-8.62-4.17-11.83-7.52-23.25-1.93c-11.42,5.58-16.37,0.97-22.01-3.81s-93.11-115.56-355.72-220.9
		c0,0-118.84-45.02-179.72-50.5c0,0-11.99-1.24-19.84-4.06s-18.45-3.3-21.12-2.85S2224.11,66.93,2222.07,66.67z"/>
	<path d="M2040.88,320.77c5.9,15.55,17.69,40.67,23.99,51.01c6.29,10.34,15.78,38.13,13.74,45.68s-11.2,9.94-15.58,8.71
		c-4.39-1.22-14.49-13.23-15.59-14.59c-1.1-1.36-18.82-28.21-18.82-28.21l-11.03-17.19"/>
	<path class="st2" d="M2065.68,414.45c1.82,0.06,3.39-1.64,3.6-3.55c0.17-1.55-0.34-3.09-0.84-4.57
		c-8.33-24.69-17.82-48.18-30.42-71.13c-4.62-8.42-9.46-16.72-14.38-24.98c-4.53-7.61-8.48-16.02-14.12-22.91
		c-0.38-0.46-0.78-0.93-1.32-1.19c-0.76-0.37-1.67-0.27-2.51-0.16c-2.59,0.35-5.45,0.96-6.95,3.06c-2.52,3.52,0,8.16,1.23,11.65
		c6.61,18.67,14.17,36.83,22.45,54.84c9.61,20.91,21.1,45.82,41.73,58.46C2064.66,414.29,2065.18,414.44,2065.68,414.45z"/>
	<path class="st2" d="M2046.79,615.88c0.21,0.42,0.31,0.85,0.44,1.33c0.2,0.74,0.33,1.49,0.47,2.24c0.18,0.99-0.33,3.05-1.15,3.91
		c-1.27,1.32-4.14,7.11-12.28,7.08c-8.14-0.03-136.66,0-136.66,0s-11.48,0.6-12.06-5.37c-0.58-5.97,1.47-12,7.93-12.06
		c0.67-0.01,1.35,0,2.02,0c1.32,0,2.63,0,3.95,0.01c1.88,0.01,3.77,0.01,5.65,0.02c2.38,0.01,4.76,0.02,7.14,0.03
		c2.8,0.01,5.6,0.02,8.4,0.04c3.14,0.01,6.29,0.03,9.43,0.04c3.42,0.02,6.83,0.03,10.25,0.05c3.61,0.02,7.23,0.03,10.84,0.05
		c3.74,0.02,7.47,0.04,11.21,0.05c3.78,0.02,7.57,0.04,11.35,0.06c3.76,0.02,7.52,0.04,11.27,0.06c3.66,0.02,7.32,0.04,10.97,0.05
		c3.48,0.02,6.97,0.03,10.45,0.05c3.23,0.02,6.47,0.03,9.7,0.05c2.91,0.01,5.82,0.03,8.73,0.04c2.51,0.01,5.03,0.03,7.54,0.04
		c2.04,0.01,4.08,0.02,6.12,0.03c2,0,3.99,0.02,5.99,0.02c0.16,0,0.32,0,0.47,0.06c0.18,0.07,0.32,0.22,0.45,0.36
		c0.4,0.44,0.81,0.88,1.15,1.38C2046.66,615.63,2046.73,615.75,2046.79,615.88z"/>
	<path d="M2154.26,405.41c0,0-5.89,3.95-11.36,3.18c-5.46-0.77-21.08-6.18-26.26-23.42S2114,354.5,2101.63,347
		c0,0-4.06-2.44-13.37-1.98c0,0,3.23-5.75,8.59-6.49c5.36-0.74,10.37-0.8,10.59-1.95s-1.29-5.24-4.16-6.66
		c-2.87-1.42-12.99-7.78-12.24-15.35c0,0,9.01,8.22,16.65,2.84c0,0,3.17-1.77,6.65-8.57c3.47-6.8,8.58-9.64,9.56-10.23
		s9.32-4.59,7.02-9.09c-2.3-4.49-11.45-6.79-11.55-11.57c-0.1-4.78,2.13-7.42,7.18-10.15c5.04-2.73,20-12.34,63.33-12.18
		s75.69,11.65,75.69,11.65s6.4,2.6,9.31,10.36c0,0-92.72-26.44-145.52,0.17c0,0-0.76,4.45,12.59,12.25c0,0,4.11,2.54,5.8,6.76
		c0,0-4.91,0.71-13.93,6.94c-9.03,6.23-14.99,15.6-14.99,15.6s-5.95,7,2.92,11.33c8.86,4.32,33.3,8.83,47.56,10.42
		c14.26,1.58,34.73,5.67,36.09,19.02c0,0-31.15-8.95-63.65-10.8c0,0-6.06-0.49-14.07-1.75c-8.01-1.26-9.84,3.86-7.59,10.41
		c2.25,6.54,2.95,9.04,4.34,16.14c1.39,7.11,5.72,20.58,15.64,26.61C2149.99,406.73,2154.26,405.41,2154.26,405.41z"/>
	<path d="M2004.25,537.56c0,0-3.38,1.03-3.42-4.6c-0.04-5.63,4.57-5.31,10.86-9.06c6.29-3.76,12.45-7.36,22.08-10.21
		c9.63-2.85,27.93-7.19,33.81-11.15s7.66-4.05,8.77-1.86c1.1,2.19,4.15,6.16-6.19,10.83c-10.34,4.67-31.6,7.41-38.68,12.25
		c-7.08,4.84-9,7.62-10.37,7.87c-1.37,0.25-4.47-1.67-5.73,0.12C2014.11,533.53,2005.07,537.5,2004.25,537.56z"/>
	<path d="M2166.37,618.48c0.61-0.95,8.22-4.44,11.65-8.17c3.43-3.74,7.2-5.74,5.84-15.7c0,0-2.51-8.66-6.63-11.72
		c0,0,15.38,2.58,15.68,16.06s-13.04,22.82-13.04,22.82s-6.77,4.09-8.99,4.44C2168.67,626.55,2163.18,623.42,2166.37,618.48z"/>
	<path d="M2399.87,373.43c0,0,3.09,2.36,5.27,6.96c2.18,4.6,5.02,10.79,7.3,14.2c2.28,3.41,4.31,7.69,8.31,5.56s4.71-4.57,3.63-8.18
		c-1.09-3.62-10.88-10-13.02-22.71c-2.22-13.21,0.77-20.53,0.77-20.53L2399.87,373.43z"/>
	<path d="M2431.52,447.57c0,0-10.33-0.22-10.07,6.04c0.26,6.25,3.11,11.3,3.09,13.91c-0.02,2.61-0.76,9.42,2.91,11.78
		c3.67,2.36,12.01-2.35,14.42-7.8c2.4-5.45,2.62-11.58,0.88-17.46c-1.74-5.88-4.98-13.27,0.33-14.43
		c5.3-1.16,18.35,2.02,20.26-10.83c1.92-12.85-8.28-16.38-12.51-24.64c-4.23-8.26,4.31-9.64,4.31-9.64s6.23-1.88,3.07-7.16
		c-3.17-5.28-9.25-3.12-11.11-3.26c-1.86-0.15-5.66,0.09-8.81-4.91s-5.03-13.49-3.69-17.62s6.24-8.93,10.89-10.73
		c4.66-1.8,6.71-3.55,7.54-7.17c0.84-3.63,1.66-8.99,8.21-8.74c6.55,0.25,17.98,4.7,22,15.53s2.23,47.58,2.23,47.58
		s-1.17,36.21-14.67,59.51c-13.5,23.31-23.93,30.67-23.93,30.67s-19.08,13.22-18.25,33.62c0,0,9.96-15.21,16.34-21.02
		c6.38-5.8,22.6-21.84,27.49-29.58c4.89-7.74,17.27-30.63,19.79-47.74c2.52-17.11,2.34-19.86,3.41-34.17s-1.27-36.26-4.29-41.91
		s-6.8-15.23-24.47-19.87s-31.44,6.18-38.42,21.19c-6.98,15.01-0.24,28.92,3.94,36.76c4.18,7.84,13.52,24.26,17.49,29.2
		s8.55,11.19,6.51,14.24c-2.04,3.05-6.27,2.94-9.97,2.78c-3.7-0.16-9.13-0.29-11.22,2.76c-2.08,3.04-4.92,11.66-3.07,13.58
		c1.85,1.92,5.92,6,5.85,11.98s-1.68,11.19-1.68,11.19s-7.65-2.39-6.08-10.17C2431.82,453.27,2432.57,448.73,2431.52,447.57z"/>
	<path d="M2485.76,496.92c0,0-2.21,1.37-7.1,6.88c-4.89,5.51-40.1,43.06-48.31,47.75s-22.7,13.31-31.25-11.98
		c0,0,7.43,9.15,17.16,7.78c9.73-1.38,24.18-15.73,32.23-24.51s36.29-39.08,40.8-45.63c4.52-6.54,11.29-17.69,12.29-23.28
		c1-5.59,7.87,5.9,7.87,5.9l1.53,27.99L2485.76,496.92z"/>
</g>
<g id="Rök_1_">
	<circle cx="1880.57" cy="592.61" r="2.94"/>
	<circle cx="1880.57" cy="580.91" r="2.94"/>
	<circle cx="1878.11" cy="571.36" r="2.94"/>
	<circle cx="1873.33" cy="561.36" r="2.94"/>
	<circle cx="1869.18" cy="549.35" r="2.94"/>
	<circle cx="1867.17" cy="539.34" r="2.94"/>
	<circle cx="1863.79" cy="526.25" r="2.94"/>
	<circle cx="1863.33" cy="514.85" r="2.94"/>
	<circle cx="1864.71" cy="500.69" r="2.94"/>
	<circle cx="1867.17" cy="490.76" r="2.94"/>
	<circle cx="1870.72" cy="475.43" r="2.94"/>
	<circle cx="1873.65" cy="463.73" r="2.94"/>
	<circle cx="1879.49" cy="450.18" r="2.94"/>
	<circle cx="1885.5" cy="435.09" r="2.94"/>
	<circle cx="1889.5" cy="420.92" r="2.94"/>
	<circle cx="1886.57" cy="405.99" r="2.94"/>
	<circle cx="1882.27" cy="389.36" r="2.94"/>
	<circle cx="1877.49" cy="375.5" r="2.94"/>
	<circle cx="1872.87" cy="365.92" r="2.94"/>
	<circle cx="1867.94" cy="356.33" r="2.94"/>
	<circle cx="1864.71" cy="343.93" r="2.94"/>
	<circle cx="1859.48" cy="329.77" r="2.94"/>
	<circle cx="1853.01" cy="312.52" r="2.94"/>
	<circle cx="1850.08" cy="299.89" r="2.94"/>
	<circle cx="1849.77" cy="286.96" r="2.94"/>
	<circle cx="1851.62" cy="272.95" r="2.94"/>
	<circle cx="1855.95" cy="258.02" r="2.94"/>
	<circle cx="1860.4" cy="246.31" r="2.94"/>
	<circle cx="1865.17" cy="234.91" r="2.94"/>
	<circle cx="1870.56" cy="223.36" r="2.94"/>
	<circle cx="1875.8" cy="211.82" r="2.94"/>
	<circle cx="1883.5" cy="197.5" r="2.94"/>
	<circle cx="1890.12" cy="185.33" r="2.94"/>
	<circle cx="1896.12" cy="171.93" r="2.94"/>
	<circle cx="1900.61" cy="159" r="2.94"/>
	<circle cx="1905.67" cy="138.52" r="2.94"/>
	<circle cx="1910.14" cy="116.5" r="2.94"/>
	<circle cx="1907.52" cy="94.91" r="2.94"/>
	<circle cx="1895.2" cy="77.85" r="2.94"/>
	<circle cx="1881.5" cy="57.99" r="2.94"/>
	<circle cx="1873.64" cy="37.82" r="2.94"/>
	<circle cx="1867.79" cy="20.42" r="2.94"/>
</g>
</svg>
